<svg width="68px" height="94px" viewBox="363 467 68 94" version="1.1" xmlns="http://www.w3.org/2000/svg" xmlns:xlink="http://www.w3.org/1999/xlink">
    <!-- Generator: Sketch 42 (36781) - http://www.bohemiancoding.com/sketch -->
    <desc>Created with Sketch.</desc>
    <defs></defs>
    <g id="beige/hurt" stroke="none" stroke-width="1" fill="none" fill-rule="evenodd" transform="translate(363.000000, 467.000000)">
        <path d="M15.75,64.75 C12.55,61.35 9.05,61.6333333 5.25,65.6 C4.75,66.1 4.16666667,66.35 3.5,66.35 C2.8,66.3833333 2.2,66.15 1.7,65.65 C1.2,65.15 0.95,64.55 0.95,63.85 C0.95,63.2166667 1.18333333,62.6333333 1.65,62.1 C7.41666667,56.0666667 14.1833333,54.7333333 21.95,58.1 L22.25,58.25 L15.75,64.75 M44,58.25 L44.25,58.05 C52.0166667,54.6833333 58.7833333,56.0166667 64.55,62.05 C65.0166667,62.5833333 65.2666667,63.1833333 65.3,63.85 C65.2666667,64.5166667 65,65.1 64.5,65.6 C64,66.1 63.4,66.3333333 62.7,66.3 C62.0333333,66.3 61.45,66.05 60.95,65.55 C57.1833333,61.6166667 53.7,61.35 50.5,64.75 L44,58.25" id="Shape" fill="#E0D1AF" fill-rule="nonzero"></path>
        <path d="M20.15,18.35 C24.35,14.15 29.4166667,12.05 35.35,12.05 C41.2833333,12.05 46.35,14.15 50.55,18.35 C54.75,22.55 56.85,27.6166667 56.85,33.55 L56.85,72.35 L56.55,72.35 C55.7833333,74.9833333 53.7833333,77.2833333 50.55,79.25 C46.35,81.7833333 41.2833333,83.05 35.35,83.05 C29.4166667,83.05 24.35,81.7833333 20.15,79.25 C16.9166667,77.2833333 14.9333333,74.9833333 14.2,72.35 L13.85,72.35 L13.85,33.55 C13.85,27.6166667 15.95,22.55 20.15,18.35" id="Shape" fill="#E0D1AF" fill-rule="nonzero"></path>
        <path d="M46.8,27.4 L46.95,27.4 L47.7,27.45 C48.7,27.5833333 49.6,28.05 50.4,28.85 C51.4,29.85 51.9,31.0166667 51.9,32.35 C51.9,33.6833333 51.4,34.8166667 50.4,35.75 C49.4666667,36.7166667 48.3666667,37.2166667 47.1,37.25 L46.95,37.25 L46.8,37.25 L29.2,37.25 L29.05,37.25 C27.75,37.2166667 26.6166667,36.7166667 25.65,35.75 C24.7166667,34.8166667 24.25,33.6833333 24.25,32.35 C24.25,31.0166667 24.7166667,29.85 25.65,28.85 C26.55,27.9833333 27.6,27.5166667 28.8,27.45 L29.05,27.4 L29.2,27.4 L29.2,27.45 L46.8,27.45 L46.8,27.4 M31.05,43.6 C31.3166667,42.6333333 31.95,41.7833333 32.95,41.05 C34.35,39.95 36.05,39.4 38.05,39.4 C40.0166667,39.4 41.7,39.95 43.1,41.05 C44,41.7833333 44.65,42.6 45.05,43.5 L45.05,44.3 L44.45,44.8 C44.1833333,44.9333333 43.9166667,44.9333333 43.65,44.8 L43.15,44.25 C42.8833333,43.65 42.45,43.1 41.85,42.6 C40.7833333,41.8 39.5166667,41.4 38.05,41.4 C36.5166667,41.4 35.2333333,41.8 34.2,42.6 C33.6,43.0666667 33.2,43.6 33,44.2 L32.55,44.75 L31.7,44.85 L31.15,44.35 C31.0166667,44.1166667 30.9833333,43.8666667 31.05,43.6" id="Shape" fill="#AF9F7A" fill-rule="nonzero"></path>
        <path d="M53.6,92.1 C53,86.0666667 49.6166667,82.0333333 43.45,80 C44.7166667,75.9333333 47.25,73.0833333 51.05,71.45 C57.95,77.5166667 60.85,83 59.75,87.9 C59.3166667,89.8 58.5166667,91.3166667 57.35,92.45 C55.8833333,93.3166667 54.6333333,93.2 53.6,92.1 M34.85,92.45 C33.3833333,93.3166667 32.1333333,93.2 31.1,92.1 C30.5,86.0666667 27.1166667,82.0333333 20.95,80 C22.2166667,75.9333333 24.75,73.0833333 28.55,71.45 C35.45,77.5166667 38.35,83 37.25,87.9 C36.8166667,89.8 36.0166667,91.3166667 34.85,92.45" id="Shape" fill="#E0D1AF" fill-rule="nonzero"></path>
        <path d="M55.45,23.15 C55.45,20.55 54.5333333,18.3333333 52.7,16.5 C50.8666667,14.6333333 48.65,13.7 46.05,13.7 C43.45,13.7 41.2333333,14.6333333 39.4,16.5 C37.5333333,18.3333333 36.6,20.55 36.6,23.15 C36.6,25.75 37.5333333,27.9666667 39.4,29.8 C41.2333333,31.6333333 43.45,32.55 46.05,32.55 C48.65,32.55 50.8666667,31.6333333 52.7,29.8 C54.5333333,27.9666667 55.45,25.75 55.45,23.15 M34.6,5.95 C42.2,5.95 48.7166667,8.65 54.15,14.05 C59.5166667,19.4166667 62.2,25.9 62.2,33.5 C62.2,41.1333333 59.5166667,47.65 54.15,53.05 C48.7166667,58.4166667 42.2,61.1 34.6,61.1 C27,61.1 20.5166667,58.4166667 15.15,53.05 C9.71666667,47.65 7,41.1333333 7,33.5 C7,25.9 9.71666667,19.4166667 15.15,14.05 C20.5166667,8.65 27,5.95 34.6,5.95" id="Shape" fill-opacity="0.2" fill="#FFFFFF" fill-rule="nonzero"></path>
        <path d="M55.45,23.15 C55.45,25.75 54.5333333,27.9666667 52.7,29.8 C50.8666667,31.6333333 48.65,32.55 46.05,32.55 C43.45,32.55 41.2333333,31.6333333 39.4,29.8 C37.5333333,27.9666667 36.6,25.75 36.6,23.15 C36.6,20.55 37.5333333,18.3333333 39.4,16.5 C41.2333333,14.6333333 43.45,13.7 46.05,13.7 C48.65,13.7 50.8666667,14.6333333 52.7,16.5 C54.5333333,18.3333333 55.45,20.55 55.45,23.15" id="Shape" fill-opacity="0.301960784" fill="#FFFFFF" fill-rule="nonzero"></path>
        <path d="M11.6,10.5 C17.9333333,4.13333333 25.6,0.95 34.6,0.95 C43.6,0.95 51.3,4.13333333 57.7,10.5 C64.0333333,16.8333333 67.2,24.5 67.2,33.5 C67.2,42.5333333 64.0333333,50.2333333 57.7,56.6 C51.3,62.9333333 43.6,66.1 34.6,66.1 C25.6,66.1 17.9333333,62.9333333 11.6,56.6 C5.2,50.2333333 2,42.5333333 2,33.5 C2,24.5 5.2,16.8333333 11.6,10.5 M34.6,5.95 C27,5.95 20.5166667,8.65 15.15,14.05 C9.71666667,19.4166667 7,25.9 7,33.5 C7,41.1333333 9.71666667,47.65 15.15,53.05 C20.5166667,58.4166667 27,61.1 34.6,61.1 C42.2,61.1 48.7166667,58.4166667 54.15,53.05 C59.5166667,47.65 62.2,41.1333333 62.2,33.5 C62.2,25.9 59.5166667,19.4166667 54.15,14.05 C48.7166667,8.65 42.2,5.95 34.6,5.95" id="Shape" fill="#FFFFFF" fill-rule="nonzero"></path>
    </g>
</svg>
