<svg width="66px" height="95px" viewBox="200 466 66 95" version="1.1" xmlns="http://www.w3.org/2000/svg" xmlns:xlink="http://www.w3.org/1999/xlink">
    <!-- Generator: Sketch 42 (36781) - http://www.bohemiancoding.com/sketch -->
    <desc>Created with Sketch.</desc>
    <defs></defs>
    <g id="beige/jump" stroke="none" stroke-width="1" fill="none" fill-rule="evenodd" transform="translate(200.000000, 466.000000)">
        <path d="M17.65,17.35 C21.85,13.15 26.9166667,11.05 32.85,11.05 C38.7833333,11.05 43.85,13.15 48.05,17.35 C52.25,21.55 54.35,26.6166667 54.35,32.55 L54.35,71.35 L54.05,71.35 C53.2833333,73.9833333 51.2833333,76.2833333 48.05,78.25 C43.85,80.7833333 38.7833333,82.05 32.85,82.05 C26.9166667,82.05 21.85,80.7833333 17.65,78.25 C14.4166667,76.2833333 12.4333333,73.9833333 11.7,71.35 L11.35,71.35 L11.35,32.55 C11.35,26.6166667 13.45,21.55 17.65,17.35" id="Shape" fill="#E0D1AF" fill-rule="nonzero"></path>
        <path d="M15,62.85 C10.3333333,62.7166667 8.05,65.3833333 8.15,70.85 C8.15,71.55 7.91666667,72.15 7.45,72.65 C6.98333333,73.15 6.4,73.4 5.7,73.4 C5,73.4 4.4,73.1666667 3.9,72.7 C3.43333333,72.2333333 3.18333333,71.65 3.15,70.95 C2.95,62.5833333 6.8,56.85 14.7,53.75 L15,53.65 L15,62.85 M61.95,52.05 C62.6166667,51.8833333 63.25,51.9666667 63.85,52.3 C64.45,52.6666667 64.85,53.1666667 65.05,53.8 C65.2166667,54.4333333 65.1333333,55.0666667 64.8,55.7 C60.8,63.0333333 54.6,66.0666667 46.2,64.8 L45.9,64.75 L50.5,56.75 C54.4666667,59.2166667 57.7833333,58.0666667 60.45,53.3 C60.8166667,52.6666667 61.3166667,52.25 61.95,52.05" id="Shape" fill="#E0D1AF" fill-rule="nonzero"></path>
        <path d="M41.45,39.25 C41.7166667,39.1166667 41.9833333,39.1166667 42.25,39.25 L42.85,39.75 L42.85,40.55 C42.45,41.45 41.8,42.2666667 40.9,43 C39.5,44.1 37.8166667,44.65 35.85,44.65 C33.85,44.65 32.15,44.1 30.75,43 C29.75,42.2666667 29.1166667,41.4166667 28.85,40.45 C28.7833333,40.1833333 28.8166667,39.9333333 28.95,39.7 C29.05,39.4333333 29.2333333,39.2666667 29.5,39.2 L30.35,39.3 L30.8,39.85 C31,40.45 31.4,40.9833333 32,41.45 C33.0333333,42.25 34.3166667,42.65 35.85,42.65 C37.3166667,42.65 38.5833333,42.25 39.65,41.45 C40.25,40.95 40.6833333,40.4 40.95,39.8 C41.0166667,39.5333333 41.1833333,39.35 41.45,39.25 M44.75,27.15 L45.5,27.2 C46.5,27.3333333 47.4,27.8 48.2,28.6 C49.2,29.6 49.7,30.7666667 49.7,32.1 C49.7,33.4333333 49.2,34.5666667 48.2,35.5 C47.2666667,36.4666667 46.1666667,36.9666667 44.9,37 L44.75,37 L44.6,37 L27,37 L26.85,37 C25.55,36.9666667 24.4166667,36.4666667 23.45,35.5 C22.5166667,34.5666667 22.05,33.4333333 22.05,32.1 C22.05,30.7666667 22.5166667,29.6 23.45,28.6 C24.35,27.7333333 25.4,27.2666667 26.6,27.2 L26.85,27.15 L27,27.15 L27,27.2 L44.6,27.2 L44.6,27.15 L44.75,27.15" id="Shape" fill="#AF9F7A" fill-rule="nonzero"></path>
        <path d="M54.3,89.7 C52.8333333,90.5666667 51.5833333,90.45 50.55,89.35 C49.95,83.3166667 46.5666667,79.2833333 40.4,77.25 C41.6666667,73.1833333 44.2,70.3333333 48,68.7 C54.9,74.7666667 57.8,80.25 56.7,85.15 C56.2666667,87.05 55.4666667,88.5666667 54.3,89.7 M15.3,75.3 C19.1666667,73.5333333 22.9833333,73.5333333 26.75,75.3 C26.8166667,84.5 24.6333333,90.3166667 20.2,92.75 C18.5333333,93.6833333 16.9166667,94.1 15.35,94 C13.5833333,93.4666667 12.8833333,92.35 13.25,90.65 C17.15,86.2833333 17.8333333,81.1666667 15.3,75.3" id="Shape" fill="#E0D1AF" fill-rule="nonzero"></path>
        <path d="M53.45,22.9 C53.45,20.3 52.5333333,18.0833333 50.7,16.25 C48.8666667,14.3833333 46.65,13.45 44.05,13.45 C41.45,13.45 39.2333333,14.3833333 37.4,16.25 C35.5333333,18.0833333 34.6,20.3 34.6,22.9 C34.6,25.5 35.5333333,27.7166667 37.4,29.55 C39.2333333,31.3833333 41.45,32.3 44.05,32.3 C46.65,32.3 48.8666667,31.3833333 50.7,29.55 C52.5333333,27.7166667 53.45,25.5 53.45,22.9 M32.6,5.7 C40.2,5.7 46.7166667,8.4 52.15,13.8 C57.5166667,19.1666667 60.2,25.65 60.2,33.25 C60.2,40.8833333 57.5166667,47.4 52.15,52.8 C46.7166667,58.1666667 40.2,60.85 32.6,60.85 C25,60.85 18.5166667,58.1666667 13.15,52.8 C7.71666667,47.4 5,40.8833333 5,33.25 C5,25.65 7.71666667,19.1666667 13.15,13.8 C18.5166667,8.4 25,5.7 32.6,5.7" id="Shape" fill-opacity="0.2" fill="#FFFFFF" fill-rule="nonzero"></path>
        <path d="M53.45,22.9 C53.45,25.5 52.5333333,27.7166667 50.7,29.55 C48.8666667,31.3833333 46.65,32.3 44.05,32.3 C41.45,32.3 39.2333333,31.3833333 37.4,29.55 C35.5333333,27.7166667 34.6,25.5 34.6,22.9 C34.6,20.3 35.5333333,18.0833333 37.4,16.25 C39.2333333,14.3833333 41.45,13.45 44.05,13.45 C46.65,13.45 48.8666667,14.3833333 50.7,16.25 C52.5333333,18.0833333 53.45,20.3 53.45,22.9" id="Shape" fill-opacity="0.301960784" fill="#FFFFFF" fill-rule="nonzero"></path>
        <path d="M9.6,10.25 C15.9333333,3.88333333 23.6,0.7 32.6,0.7 C41.6,0.7 49.3,3.88333333 55.7,10.25 C62.0333333,16.5833333 65.2,24.25 65.2,33.25 C65.2,42.2833333 62.0333333,49.9833333 55.7,56.35 C49.3,62.6833333 41.6,65.85 32.6,65.85 C23.6,65.85 15.9333333,62.6833333 9.6,56.35 C3.2,49.9833333 0,42.2833333 0,33.25 C0,24.25 3.2,16.5833333 9.6,10.25 M32.6,5.7 C25,5.7 18.5166667,8.4 13.15,13.8 C7.71666667,19.1666667 5,25.65 5,33.25 C5,40.8833333 7.71666667,47.4 13.15,52.8 C18.5166667,58.1666667 25,60.85 32.6,60.85 C40.2,60.85 46.7166667,58.1666667 52.15,52.8 C57.5166667,47.4 60.2,40.8833333 60.2,33.25 C60.2,25.65 57.5166667,19.1666667 52.15,13.8 C46.7166667,8.4 40.2,5.7 32.6,5.7" id="Shape" fill="#FFFFFF" fill-rule="nonzero"></path>
    </g>
</svg>
