
<svg width="66px" height="93px" viewBox="40 468 66 93" version="1.1" xmlns="http://www.w3.org/2000/svg" xmlns:xlink="http://www.w3.org/1999/xlink">
    <!-- Generator: Sketch 42 (36781) - http://www.bohemiancoding.com/sketch -->
    <desc>Created with Sketch.</desc>
    <defs></defs>
    <g id="beige/front" stroke="none" stroke-width="1" fill="none" fill-rule="evenodd" transform="translate(40.000000, 468.000000)">
        <path d="M15.95,61.65 C17.25,59.7833333 18.8333333,58.8666667 20.7,58.9 C22.5,58.8666667 23.95,59.7833333 25.05,61.65 C25.9833333,63.4166667 26.3,65.4833333 26,67.85 L22.45,92 L14.1,92 L14.1,67.85 C14.0666667,65.4833333 14.6833333,63.4166667 15.95,61.65 M40.15,61.65 C41.25,59.7833333 42.7,58.8666667 44.5,58.9 C46.3666667,58.8666667 47.95,59.7833333 49.25,61.65 C50.5166667,63.4166667 51.1333333,65.4833333 51.1,67.85 L51.1,92 L42.75,92 L39.2,67.85 C38.9,65.4833333 39.2166667,63.4166667 40.15,61.65" id="Shape" fill="#E0D1AF" fill-rule="nonzero"></path>
        <path d="M17.4,17.6 C21.6,13.4 26.6666667,11.3 32.6,11.3 C38.5333333,11.3 43.6,13.4 47.8,17.6 C52,21.8 54.1,26.8666667 54.1,32.8 L54.1,71.6 L53.8,71.6 C53.0333333,74.2333333 51.0333333,76.5333333 47.8,78.5 C43.6,81.0333333 38.5333333,82.3 32.6,82.3 C26.6666667,82.3 21.6,81.0333333 17.4,78.5 C14.1666667,76.5333333 12.1833333,74.2333333 11.45,71.6 L11.1,71.6 L11.1,32.8 C11.1,26.8666667 13.2,21.8 17.4,17.6" id="Shape" fill="#E0D1AF" fill-rule="nonzero"></path>
        <path d="M38.2,38.75 C38.4666667,38.6166667 38.7333333,38.6166667 39,38.75 L39.6,39.25 L39.6,40.05 C39.2,40.95 38.55,41.7666667 37.65,42.5 C36.25,43.6 34.5666667,44.15 32.6,44.15 C30.6,44.15 28.9,43.6 27.5,42.5 C26.5,41.7666667 25.8666667,40.9166667 25.6,39.95 C25.5333333,39.6833333 25.5666667,39.4333333 25.7,39.2 C25.8,38.9333333 25.9833333,38.7666667 26.25,38.7 L27.1,38.8 L27.55,39.35 C27.75,39.95 28.15,40.4833333 28.75,40.95 C29.7833333,41.75 31.0666667,42.15 32.6,42.15 C34.0666667,42.15 35.3333333,41.75 36.4,40.95 C37,40.45 37.4333333,39.9 37.7,39.3 L38.2,38.75 M41.5,26.65 L42.25,26.7 C43.25,26.8333333 44.15,27.3 44.95,28.1 C45.95,29.1 46.45,30.2666667 46.45,31.6 C46.45,32.9333333 45.95,34.0666667 44.95,35 C44.0166667,35.9666667 42.9166667,36.4666667 41.65,36.5 L41.5,36.5 L41.35,36.5 L23.75,36.5 L23.6,36.5 C22.3,36.4666667 21.1666667,35.9666667 20.2,35 C19.2666667,34.0666667 18.8,32.9333333 18.8,31.6 C18.8,30.2666667 19.2666667,29.1 20.2,28.1 C21.1,27.2333333 22.15,26.7666667 23.35,26.7 L23.6,26.65 L23.75,26.65 L23.75,26.7 L41.35,26.7 L41.35,26.65 L41.5,26.65" id="Shape" fill="#AF9F7A" fill-rule="nonzero"></path>
        <path d="M12.7,53 L13,52.9 L13,62.1 C8.33333333,61.9666667 6.05,64.6333333 6.15,70.1 C6.15,70.8 5.91666667,71.4 5.45,71.9 C4.98333333,72.4 4.4,72.65 3.7,72.65 C3,72.65 2.4,72.4166667 1.9,71.95 C1.43333333,71.4833333 1.18333333,70.9 1.15,70.2 C0.95,61.8333333 4.8,56.1 12.7,53 M52.2,52.9 L52.5,53 C60.4,56.1 64.25,61.8333333 64.05,70.2 C64.0166667,70.9 63.7666667,71.4833333 63.3,71.95 C62.8,72.4166667 62.2,72.65 61.5,72.65 C60.8,72.65 60.2166667,72.4 59.75,71.9 C59.2833333,71.4 59.05,70.8 59.05,70.1 C59.15,64.6333333 56.8666667,61.9666667 52.2,62.1 L52.2,52.9" id="Shape" fill="#E0D1AF" fill-rule="nonzero"></path>
        <path d="M53.45,22.4 C53.45,19.8 52.5333333,17.5833333 50.7,15.75 C48.8666667,13.8833333 46.65,12.95 44.05,12.95 C41.45,12.95 39.2333333,13.8833333 37.4,15.75 C35.5333333,17.5833333 34.6,19.8 34.6,22.4 C34.6,25 35.5333333,27.2166667 37.4,29.05 C39.2333333,30.8833333 41.45,31.8 44.05,31.8 C46.65,31.8 48.8666667,30.8833333 50.7,29.05 C52.5333333,27.2166667 53.45,25 53.45,22.4 M32.6,5.2 C40.2,5.2 46.7166667,7.9 52.15,13.3 C57.5166667,18.6666667 60.2,25.15 60.2,32.75 C60.2,40.3833333 57.5166667,46.9 52.15,52.3 C46.7166667,57.6666667 40.2,60.35 32.6,60.35 C25,60.35 18.5166667,57.6666667 13.15,52.3 C7.71666667,46.9 5,40.3833333 5,32.75 C5,25.15 7.71666667,18.6666667 13.15,13.3 C18.5166667,7.9 25,5.2 32.6,5.2" id="Shape" fill-opacity="0.2" fill="#FFFFFF" fill-rule="nonzero"></path>
        <path d="M53.45,22.4 C53.45,25 52.5333333,27.2166667 50.7,29.05 C48.8666667,30.8833333 46.65,31.8 44.05,31.8 C41.45,31.8 39.2333333,30.8833333 37.4,29.05 C35.5333333,27.2166667 34.6,25 34.6,22.4 C34.6,19.8 35.5333333,17.5833333 37.4,15.75 C39.2333333,13.8833333 41.45,12.95 44.05,12.95 C46.65,12.95 48.8666667,13.8833333 50.7,15.75 C52.5333333,17.5833333 53.45,19.8 53.45,22.4" id="Shape" fill-opacity="0.301960784" fill="#FFFFFF" fill-rule="nonzero"></path>
        <path d="M9.6,9.75 C15.9333333,3.38333333 23.6,0.2 32.6,0.2 C41.6,0.2 49.3,3.38333333 55.7,9.75 C62.0333333,16.0833333 65.2,23.75 65.2,32.75 C65.2,41.7833333 62.0333333,49.4833333 55.7,55.85 C49.3,62.1833333 41.6,65.35 32.6,65.35 C23.6,65.35 15.9333333,62.1833333 9.6,55.85 C3.2,49.4833333 0,41.7833333 0,32.75 C0,23.75 3.2,16.0833333 9.6,9.75 M32.6,5.2 C25,5.2 18.5166667,7.9 13.15,13.3 C7.71666667,18.6666667 5,25.15 5,32.75 C5,40.3833333 7.71666667,46.9 13.15,52.3 C18.5166667,57.6666667 25,60.35 32.6,60.35 C40.2,60.35 46.7166667,57.6666667 52.15,52.3 C57.5166667,46.9 60.2,40.3833333 60.2,32.75 C60.2,25.15 57.5166667,18.6666667 52.15,13.3 C46.7166667,7.9 40.2,5.2 32.6,5.2" id="Shape" fill="#FFFFFF" fill-rule="nonzero"></path>
    </g>
</svg>
