<svg width="65px" height="89px" viewBox="0 0 65 89" version="1.1" xmlns="http://www.w3.org/2000/svg" xmlns:xlink="http://www.w3.org/1999/xlink">
    <!-- Generator: Sketch 42 (36781) - http://www.bohemiancoding.com/sketch -->
    <desc>Created with Sketch.</desc>
    <defs></defs>
    <g id="Group" stroke="none" stroke-width="1" fill="none" fill-rule="evenodd">
        <polygon id="Shape" fill="#E0871C" fill-rule="nonzero" points="59.6 57.65 54.2 67.35 48.8 63.05 43.35 72.8 37.95 68.5 32.55 78.2 27.15 68.5 21.75 72.8 16.3 63.05 10.9 67.35 5.5 57.65 0 61.95 0 50.75 32.55 67 65 50.75 65 61.95"></polygon>
        <polygon id="Shape" fill="#BBCBCC" fill-rule="nonzero" points="65 72.75 32.55 89 0 72.75 0 61.95 5.5 57.65 10.9 67.35 16.3 63.05 21.75 72.8 27.15 68.5 32.55 78.2 37.95 68.5 43.35 72.8 48.8 63.05 54.2 67.35 59.6 57.65 65 61.95"></polygon>
        <polygon id="Shape" fill="#E9AB60" fill-rule="nonzero" points="32.55 67 0 50.75 0 48.75 32.55 65 65 48.75 65 50.75"></polygon>
        <path d="M0,16.25 C10.8666667,10.85 21.7166667,5.43333333 32.55,0 L65,16.25 L65,48.75 L32.55,65 L0,48.75 L0,16.25 Z" id="Shape" fill="#E39333" fill-rule="nonzero"></path>
    </g>
</svg>
