<?xml version="1.0" encoding="UTF-8"?>
<svg width="66px" height="82px" viewBox="0 0 66 82" version="1.1" xmlns="http://www.w3.org/2000/svg" xmlns:xlink="http://www.w3.org/1999/xlink">
    <!-- Generator: Sketch 42 (36781) - http://www.bohemiancoding.com/sketch -->
    <title>yellow/front</title>
    <desc>Created with Sketch.</desc>
    <defs></defs>
    <g id="Page-1" stroke="none" stroke-width="1" fill="none" fill-rule="evenodd">
        <g id="yellow/front" fill-rule="nonzero">
            <path d="M51.1,63.7 L51.1,82 L42.75,82 L39.2,63.7 C38.9,61.9 39.2166667,60.3333333 40.15,59 C41.25,57.5666667 42.7,56.8666667 44.5,56.9 C46.3666667,56.8666667 47.95,57.5666667 49.25,59 C50.5166667,60.3333333 51.1333333,61.9 51.1,63.7 M15.95,59 C17.25,57.5666667 18.8333333,56.8666667 20.7,56.9 C22.5,56.8666667 23.95,57.5666667 25.05,59 C25.9833333,60.3333333 26.3,61.9 26,63.7 L22.45,82 L14.1,82 L14.1,63.7 C14.0666667,61.9 14.6833333,60.3333333 15.95,59" id="Shape" fill="#FFCC00"></path>
            <path d="M17.4,17.6 C21.6,13.4 26.6666667,11.3 32.6,11.3 C38.5333333,11.3 43.6,13.4 47.8,17.6 C52,21.8 54.1,26.8666667 54.1,32.8 L54.1,60.2 C54.1,63.8333333 52,66.9333333 47.8,69.5 C43.6,72.0333333 38.5333333,73.3 32.6,73.3 C26.6666667,73.3 21.6,72.0333333 17.4,69.5 C13.2,66.9333333 11.1,63.8333333 11.1,60.2 L11.1,32.8 C11.1,26.8666667 13.2,21.8 17.4,17.6" id="Shape" fill="#FFCC00"></path>
            <path d="M41.5,46.15 C40.1,46.15 38.9,45.65 37.9,44.65 C36.9666667,43.7166667 36.5,42.5833333 36.5,41.25 L36.55,40.85 L46.45,40.85 L46.45,41.25 C46.45,42.5833333 45.95,43.7166667 44.95,44.65 C43.9833333,45.65 42.8333333,46.15 41.5,46.15 M28.75,41.25 C28.75,42.5833333 28.25,43.7166667 27.25,44.65 C26.2833333,45.65 25.1333333,46.15 23.8,46.15 C22.4,46.15 21.2,45.65 20.2,44.65 C19.2666667,43.7166667 18.8,42.5833333 18.8,41.25 L18.85,40.85 L28.75,40.85 L28.75,41.25 M25.6,49.6 C25.5333333,49.3333333 25.5666667,49.0833333 25.7,48.85 C25.8,48.5833333 25.9833333,48.4166667 26.25,48.35 L27.1,48.45 L27.55,49 C27.75,49.6 28.15,50.1333333 28.75,50.6 C29.7833333,51.4 31.0666667,51.8 32.6,51.8 C34.0666667,51.8 35.3333333,51.4 36.4,50.6 C37,50.1 37.4333333,49.55 37.7,48.95 L38.2,48.4 C38.4666667,48.2666667 38.7333333,48.2666667 39,48.4 L39.6,48.9 L39.6,49.7 C39.2,50.6 38.55,51.4166667 37.65,52.15 C36.25,53.25 34.5666667,53.8 32.6,53.8 C30.6,53.8 28.9,53.25 27.5,52.15 C26.5,51.4166667 25.8666667,50.5666667 25.6,49.6" id="Shape" fill="#AD8A00"></path>
            <path d="M52.2,42.9 L52.5,43 C60.4,46.1 64.25,51.8333333 64.05,60.2 C64.0166667,60.9 63.7666667,61.4833333 63.3,61.95 C62.8,62.4166667 62.2,62.65 61.5,62.65 C60.8,62.65 60.2166667,62.4 59.75,61.9 C59.2833333,61.4 59.05,60.8 59.05,60.1 C59.15,54.6333333 56.8666667,51.9666667 52.2,52.1 L52.2,42.9 M13,42.9 L13,52.1 C8.33333333,51.9666667 6.05,54.6333333 6.15,60.1 C6.15,60.8 5.91666667,61.4 5.45,61.9 C4.98333333,62.4 4.4,62.65 3.7,62.65 C3,62.65 2.4,62.4166667 1.9,61.95 C1.43333333,61.4833333 1.18333333,60.9 1.15,60.2 C0.95,51.8333333 4.8,46.1 12.7,43 L13,42.9" id="Shape" fill="#FFCC00"></path>
            <path d="M32.6,5.2 C40.2,5.2 46.7166667,7.9 52.15,13.3 C57.5166667,18.6666667 60.2,25.15 60.2,32.75 C60.2,40.3833333 57.5166667,46.9 52.15,52.3 C46.7166667,57.6666667 40.2,60.35 32.6,60.35 C25,60.35 18.5166667,57.6666667 13.15,52.3 C7.71666667,46.9 5,40.3833333 5,32.75 C5,25.15 7.71666667,18.6666667 13.15,13.3 C18.5166667,7.9 25,5.2 32.6,5.2 M37.4,15.75 C35.5333333,17.5833333 34.6,19.8 34.6,22.4 C34.6,25 35.5333333,27.2166667 37.4,29.05 C39.2333333,30.8833333 41.45,31.8 44.05,31.8 C46.65,31.8 48.8666667,30.8833333 50.7,29.05 C52.5333333,27.2166667 53.45,25 53.45,22.4 C53.45,19.8 52.5333333,17.5833333 50.7,15.75 C48.8666667,13.8833333 46.65,12.95 44.05,12.95 C41.45,12.95 39.2333333,13.8833333 37.4,15.75" id="Shape" fill-opacity="0.2" fill="#FFFFFF"></path>
            <path d="M37.4,15.75 C39.2333333,13.8833333 41.45,12.95 44.05,12.95 C46.65,12.95 48.8666667,13.8833333 50.7,15.75 C52.5333333,17.5833333 53.45,19.8 53.45,22.4 C53.45,25 52.5333333,27.2166667 50.7,29.05 C48.8666667,30.8833333 46.65,31.8 44.05,31.8 C41.45,31.8 39.2333333,30.8833333 37.4,29.05 C35.5333333,27.2166667 34.6,25 34.6,22.4 C34.6,19.8 35.5333333,17.5833333 37.4,15.75" id="Shape" fill-opacity="0.301960784" fill="#FFFFFF"></path>
            <path d="M9.6,9.75 C15.9333333,3.38333333 23.6,0.2 32.6,0.2 C41.6,0.2 49.3,3.38333333 55.7,9.75 C62.0333333,16.0833333 65.2,23.75 65.2,32.75 C65.2,41.7833333 62.0333333,49.4833333 55.7,55.85 C49.3,62.1833333 41.6,65.35 32.6,65.35 C23.6,65.35 15.9333333,62.1833333 9.6,55.85 C3.2,49.4833333 0,41.7833333 0,32.75 C0,23.75 3.2,16.0833333 9.6,9.75 M32.6,5.2 C25,5.2 18.5166667,7.9 13.15,13.3 C7.71666667,18.6666667 5,25.15 5,32.75 C5,40.3833333 7.71666667,46.9 13.15,52.3 C18.5166667,57.6666667 25,60.35 32.6,60.35 C40.2,60.35 46.7166667,57.6666667 52.15,52.3 C57.5166667,46.9 60.2,40.3833333 60.2,32.75 C60.2,25.15 57.5166667,18.6666667 52.15,13.3 C46.7166667,7.9 40.2,5.2 32.6,5.2" id="Shape" fill="#FFFFFF"></path>
        </g>
    </g>
</svg>