<?xml version="1.0" encoding="UTF-8"?>
<svg width="70px" height="82px" viewBox="0 0 70 82" version="1.1" xmlns="http://www.w3.org/2000/svg" xmlns:xlink="http://www.w3.org/1999/xlink">
    <!-- Generator: Sketch 42 (36781) - http://www.bohemiancoding.com/sketch -->
    <title>yellow/hurt</title>
    <desc>Created with Sketch.</desc>
    <defs></defs>
    <g id="Page-1" stroke="none" stroke-width="1" fill="none" fill-rule="evenodd">
        <g id="yellow/hurt" fill-rule="nonzero">
            <path d="M21.4,19.35 C25.6,15.15 30.6666667,13.05 36.6,13.05 C42.5333333,13.05 47.6,15.15 51.8,19.35 C56,23.55 58.1,28.6166667 58.1,34.55 L58.1,59.95 C58.1,63.5833333 56,66.6833333 51.8,69.25 C47.6,71.7833333 42.5333333,73.05 36.6,73.05 C30.6666667,73.05 25.6,71.7833333 21.4,69.25 C17.2,66.6833333 15.1,63.5833333 15.1,59.95 L15.1,34.55 C15.1,28.6166667 17.2,23.55 21.4,19.35" id="Shape" fill="#FFCC00"></path>
            <path d="M66.7,52.8 C66.0333333,52.8 65.45,52.55 64.95,52.05 C61.1833333,48.1166667 57.7,47.85 54.5,51.25 L48,44.75 L48.25,44.55 C56.0166667,41.1833333 62.7833333,42.5166667 68.55,48.55 C69.0166667,49.0833333 69.2666667,49.6833333 69.3,50.35 C69.2666667,51.0166667 69,51.6 68.5,52.1 C68,52.6 67.4,52.8333333 66.7,52.8 M22.25,44.75 L15.75,51.25 C12.55,47.85 9.05,48.1333333 5.25,52.1 C4.75,52.6 4.16666667,52.85 3.5,52.85 C2.8,52.8833333 2.2,52.65 1.7,52.15 C1.2,51.65 0.95,51.05 0.95,50.35 C0.95,49.7166667 1.18333333,49.1333333 1.65,48.6 C7.41666667,42.5666667 14.1833333,41.2333333 21.95,44.6 L22.25,44.75" id="Shape" fill="#FFCC00"></path>
            <path d="M20.95,69 C22.2166667,64.9333333 24.75,62.0833333 28.55,60.45 C35.45,66.5166667 38.35,72 37.25,76.9 C36.8166667,78.8 36.0166667,80.3166667 34.85,81.45 C33.3833333,82.3166667 32.1333333,82.2 31.1,81.1 C30.5,75.0666667 27.1166667,71.0333333 20.95,69 M47.45,69 C48.7166667,64.9333333 51.25,62.0833333 55.05,60.45 C61.95,66.5166667 64.85,72 63.75,76.9 C63.3166667,78.8 62.5166667,80.3166667 61.35,81.45 C59.8833333,82.3166667 58.6333333,82.2 57.6,81.1 C57,75.0666667 53.6166667,71.0333333 47.45,69" id="Shape" fill="#FFCC00"></path>
            <path d="M47.6,52.15 L47.6,52.95 L47,53.45 C46.7333333,53.5833333 46.4666667,53.5833333 46.2,53.45 L45.7,52.9 C45.4333333,52.3 45,51.75 44.4,51.25 C43.3333333,50.45 42.0666667,50.05 40.6,50.05 C39.0666667,50.05 37.7833333,50.45 36.75,51.25 C36.15,51.7166667 35.75,52.25 35.55,52.85 L35.1,53.4 L34.25,53.5 L33.7,53 C33.5666667,52.7666667 33.5333333,52.5166667 33.6,52.25 C33.8666667,51.2833333 34.5,50.4333333 35.5,49.7 C36.9,48.6 38.6,48.05 40.6,48.05 C42.5666667,48.05 44.25,48.6 45.65,49.7 C46.55,50.4333333 47.2,51.25 47.6,52.15 M54.45,40.6 L54.45,41 C54.45,42.3333333 53.95,43.4666667 52.95,44.4 C51.9833333,45.4 50.8333333,45.9 49.5,45.9 C48.1,45.9 46.9,45.4 45.9,44.4 C44.9666667,43.4666667 44.5,42.3333333 44.5,41 L44.55,40.6 L54.45,40.6 M28.2,44.4 C27.2666667,43.4666667 26.8,42.3333333 26.8,41 L26.85,40.6 L36.75,40.6 L36.75,41 C36.75,42.3333333 36.25,43.4666667 35.25,44.4 C34.2833333,45.4 33.1333333,45.9 31.8,45.9 C30.4,45.9 29.2,45.4 28.2,44.4" id="Shape" fill="#AD8A00"></path>
            <path d="M36.6,5.95 C44.2,5.95 50.7166667,8.65 56.15,14.05 C61.5166667,19.4166667 64.2,25.9 64.2,33.5 C64.2,41.1333333 61.5166667,47.65 56.15,53.05 C50.7166667,58.4166667 44.2,61.1 36.6,61.1 C29,61.1 22.5166667,58.4166667 17.15,53.05 C11.7166667,47.65 9,41.1333333 9,33.5 C9,25.9 11.7166667,19.4166667 17.15,14.05 C22.5166667,8.65 29,5.95 36.6,5.95 M41.4,16.5 C39.5333333,18.3333333 38.6,20.55 38.6,23.15 C38.6,25.75 39.5333333,27.9666667 41.4,29.8 C43.2333333,31.6333333 45.45,32.55 48.05,32.55 C50.65,32.55 52.8666667,31.6333333 54.7,29.8 C56.5333333,27.9666667 57.45,25.75 57.45,23.15 C57.45,20.55 56.5333333,18.3333333 54.7,16.5 C52.8666667,14.6333333 50.65,13.7 48.05,13.7 C45.45,13.7 43.2333333,14.6333333 41.4,16.5" id="Shape" fill-opacity="0.2" fill="#FFFFFF"></path>
            <path d="M41.4,16.5 C43.2333333,14.6333333 45.45,13.7 48.05,13.7 C50.65,13.7 52.8666667,14.6333333 54.7,16.5 C56.5333333,18.3333333 57.45,20.55 57.45,23.15 C57.45,25.75 56.5333333,27.9666667 54.7,29.8 C52.8666667,31.6333333 50.65,32.55 48.05,32.55 C45.45,32.55 43.2333333,31.6333333 41.4,29.8 C39.5333333,27.9666667 38.6,25.75 38.6,23.15 C38.6,20.55 39.5333333,18.3333333 41.4,16.5" id="Shape" fill-opacity="0.301960784" fill="#FFFFFF"></path>
            <path d="M13.6,10.5 C19.9333333,4.13333333 27.6,0.95 36.6,0.95 C45.6,0.95 53.3,4.13333333 59.7,10.5 C66.0333333,16.8333333 69.2,24.5 69.2,33.5 C69.2,42.5333333 66.0333333,50.2333333 59.7,56.6 C53.3,62.9333333 45.6,66.1 36.6,66.1 C27.6,66.1 19.9333333,62.9333333 13.6,56.6 C7.2,50.2333333 4,42.5333333 4,33.5 C4,24.5 7.2,16.8333333 13.6,10.5 M36.6,5.95 C29,5.95 22.5166667,8.65 17.15,14.05 C11.7166667,19.4166667 9,25.9 9,33.5 C9,41.1333333 11.7166667,47.65 17.15,53.05 C22.5166667,58.4166667 29,61.1 36.6,61.1 C44.2,61.1 50.7166667,58.4166667 56.15,53.05 C61.5166667,47.65 64.2,41.1333333 64.2,33.5 C64.2,25.9 61.5166667,19.4166667 56.15,14.05 C50.7166667,8.65 44.2,5.95 36.6,5.95" id="Shape" fill="#FFFFFF"></path>
        </g>
    </g>
</svg>