<?xml version="1.0" encoding="UTF-8"?>
<svg width="68px" height="84px" viewBox="0 0 68 84" version="1.1" xmlns="http://www.w3.org/2000/svg" xmlns:xlink="http://www.w3.org/1999/xlink">
    <!-- Generator: Sketch 42 (36781) - http://www.bohemiancoding.com/sketch -->
    <title>yellow/jump</title>
    <desc>Created with Sketch.</desc>
    <defs></defs>
    <g id="Page-1" stroke="none" stroke-width="1" fill="none" fill-rule="evenodd">
        <g id="yellow/jump" fill-rule="nonzero">
            <path d="M13.3,65.3 C17.1666667,63.5333333 20.9833333,63.5333333 24.75,65.3 C24.8166667,74.5 22.6333333,80.3166667 18.2,82.75 C16.5333333,83.6833333 14.9166667,84.1 13.35,84 C11.5833333,83.4666667 10.8833333,82.35 11.25,80.65 C15.15,76.2833333 15.8333333,71.1666667 13.3,65.3 M50,58.7 C56.9,64.7666667 59.8,70.25 58.7,75.15 C58.2666667,77.05 57.4666667,78.5666667 56.3,79.7 C54.8333333,80.5666667 53.5833333,80.45 52.55,79.35 C51.95,73.3166667 48.5666667,69.2833333 42.4,67.25 C43.6666667,63.1833333 46.2,60.3333333 50,58.7" id="Shape" fill="#FFCC00"></path>
            <path d="M17.4,18.1 C21.6,13.9 26.6666667,11.8 32.6,11.8 C38.5333333,11.8 43.6,13.9 47.8,18.1 C52,22.3 54.1,27.3666667 54.1,33.3 L54.1,60.7 C54.1,64.3333333 52,67.4333333 47.8,70 C43.6,72.5333333 38.5333333,73.8 32.6,73.8 C26.6666667,73.8 21.6,72.5333333 17.4,70 C13.2,67.4333333 11.1,64.3333333 11.1,60.7 L11.1,33.3 C11.1,27.3666667 13.2,22.3 17.4,18.1" id="Shape" fill="#FFCC00"></path>
            <path d="M66.8,45.45 C62.8,52.7833333 56.6,55.8166667 48.2,54.55 L47.9,54.5 L52.5,46.5 C56.4666667,48.9666667 59.7833333,47.8166667 62.45,43.05 C62.8166667,42.4166667 63.3166667,42 63.95,41.8 C64.6166667,41.6333333 65.25,41.7166667 65.85,42.05 C66.45,42.4166667 66.85,42.9166667 67.05,43.55 C67.2166667,44.1833333 67.1333333,44.8166667 66.8,45.45 M5.45,62.4 C4.98333333,62.9 4.4,63.15 3.7,63.15 C3,63.15 2.4,62.9166667 1.9,62.45 C1.43333333,61.9833333 1.18333333,61.4 1.15,60.7 C0.95,52.3333333 4.8,46.6 12.7,43.5 L13,43.4 L13,52.6 C8.33333333,52.4666667 6.05,55.1333333 6.15,60.6 C6.15,61.3 5.91666667,61.9 5.45,62.4" id="Shape" fill="#FFCC00"></path>
            <path d="M44.5,46.65 C43.1,46.65 41.9,46.15 40.9,45.15 C39.9666667,44.2166667 39.5,43.0833333 39.5,41.75 L39.55,41.35 L49.45,41.35 L49.45,41.75 C49.45,43.0833333 48.95,44.2166667 47.95,45.15 C46.9833333,46.15 45.8333333,46.65 44.5,46.65 M31.75,41.75 C31.75,43.0833333 31.25,44.2166667 30.25,45.15 C29.2833333,46.15 28.1333333,46.65 26.8,46.65 C25.4,46.65 24.2,46.15 23.2,45.15 C22.2666667,44.2166667 21.8,43.0833333 21.8,41.75 L21.85,41.35 L31.75,41.35 L31.75,41.75 M28.7,49.35 C28.8,49.0833333 28.9833333,48.9166667 29.25,48.85 L30.1,48.95 L30.55,49.5 C30.75,50.1 31.15,50.6333333 31.75,51.1 C32.7833333,51.9 34.0666667,52.3 35.6,52.3 C37.0666667,52.3 38.3333333,51.9 39.4,51.1 C40,50.6 40.4333333,50.05 40.7,49.45 C40.7666667,49.1833333 40.9333333,49 41.2,48.9 C41.4666667,48.7666667 41.7333333,48.7666667 42,48.9 L42.6,49.4 L42.6,50.2 C42.2,51.1 41.55,51.9166667 40.65,52.65 C39.25,53.75 37.5666667,54.3 35.6,54.3 C33.6,54.3 31.9,53.75 30.5,52.65 C29.5,51.9166667 28.8666667,51.0666667 28.6,50.1 C28.5333333,49.8333333 28.5666667,49.5833333 28.7,49.35" id="Shape" fill="#AD8A00"></path>
            <path d="M32.6,5.7 C40.2,5.7 46.7166667,8.4 52.15,13.8 C57.5166667,19.1666667 60.2,25.65 60.2,33.25 C60.2,40.8833333 57.5166667,47.4 52.15,52.8 C46.7166667,58.1666667 40.2,60.85 32.6,60.85 C25,60.85 18.5166667,58.1666667 13.15,52.8 C7.71666667,47.4 5,40.8833333 5,33.25 C5,25.65 7.71666667,19.1666667 13.15,13.8 C18.5166667,8.4 25,5.7 32.6,5.7 M37.4,16.25 C35.5333333,18.0833333 34.6,20.3 34.6,22.9 C34.6,25.5 35.5333333,27.7166667 37.4,29.55 C39.2333333,31.3833333 41.45,32.3 44.05,32.3 C46.65,32.3 48.8666667,31.3833333 50.7,29.55 C52.5333333,27.7166667 53.45,25.5 53.45,22.9 C53.45,20.3 52.5333333,18.0833333 50.7,16.25 C48.8666667,14.3833333 46.65,13.45 44.05,13.45 C41.45,13.45 39.2333333,14.3833333 37.4,16.25" id="Shape" fill-opacity="0.2" fill="#FFFFFF"></path>
            <path d="M37.4,16.25 C39.2333333,14.3833333 41.45,13.45 44.05,13.45 C46.65,13.45 48.8666667,14.3833333 50.7,16.25 C52.5333333,18.0833333 53.45,20.3 53.45,22.9 C53.45,25.5 52.5333333,27.7166667 50.7,29.55 C48.8666667,31.3833333 46.65,32.3 44.05,32.3 C41.45,32.3 39.2333333,31.3833333 37.4,29.55 C35.5333333,27.7166667 34.6,25.5 34.6,22.9 C34.6,20.3 35.5333333,18.0833333 37.4,16.25" id="Shape" fill-opacity="0.301960784" fill="#FFFFFF"></path>
            <path d="M9.6,10.25 C15.9333333,3.88333333 23.6,0.7 32.6,0.7 C41.6,0.7 49.3,3.88333333 55.7,10.25 C62.0333333,16.5833333 65.2,24.25 65.2,33.25 C65.2,42.2833333 62.0333333,49.9833333 55.7,56.35 C49.3,62.6833333 41.6,65.85 32.6,65.85 C23.6,65.85 15.9333333,62.6833333 9.6,56.35 C3.2,49.9833333 0,42.2833333 0,33.25 C0,24.25 3.2,16.5833333 9.6,10.25 M32.6,5.7 C25,5.7 18.5166667,8.4 13.15,13.8 C7.71666667,19.1666667 5,25.65 5,33.25 C5,40.8833333 7.71666667,47.4 13.15,52.8 C18.5166667,58.1666667 25,60.85 32.6,60.85 C40.2,60.85 46.7166667,58.1666667 52.15,52.8 C57.5166667,47.4 60.2,40.8833333 60.2,33.25 C60.2,25.65 57.5166667,19.1666667 52.15,13.8 C46.7166667,8.4 40.2,5.7 32.6,5.7" id="Shape" fill="#FFFFFF"></path>
        </g>
    </g>
</svg>