<?xml version="1.0" encoding="UTF-8"?>
<svg width="66px" height="82px" viewBox="0 0 66 82" version="1.1" xmlns="http://www.w3.org/2000/svg" xmlns:xlink="http://www.w3.org/1999/xlink">
    <!-- Generator: Sketch 42 (36781) - http://www.bohemiancoding.com/sketch -->
    <title>yellow/lean</title>
    <desc>Created with Sketch.</desc>
    <defs></defs>
    <g id="Page-1" stroke="none" stroke-width="1" fill="none" fill-rule="evenodd">
        <g id="yellow/lean" fill-rule="nonzero">
            <path d="M50.55,63.7 L49.2,82 L40.85,82 L38.65,63.7 C38.5166667,61.9 38.95,60.3333333 39.95,59 C41.1833333,57.5666667 42.7,56.8666667 44.5,56.9 C46.3666667,56.8666667 47.8833333,57.5666667 49.05,59 C50.25,60.3333333 50.75,61.9 50.55,63.7 M15.55,59 C17.0833333,57.5666667 18.8,56.8666667 20.7,56.9 C22.4666667,56.8666667 23.7833333,57.5666667 24.65,59 C25.3166667,60.3333333 25.3333333,61.9 24.7,63.7 L17.65,82 L9.3,82 L12.8,63.7 C13.1,61.9 14.0166667,60.3333333 15.55,59" id="Shape" fill="#FFCC00"></path>
            <path d="M17.4,17.6 C21.6,13.4 26.6666667,11.3 32.6,11.3 C38.5333333,11.3 43.6,13.4 47.8,17.6 C52,21.8 54.1,26.8666667 54.1,32.8 L54.1,60.2 C54.1,63.8333333 52,66.9333333 47.8,69.5 C43.6,72.0333333 38.5333333,73.3 32.6,73.3 C26.6666667,73.3 21.6,72.0333333 17.4,69.5 C13.2,66.9333333 11.1,63.8333333 11.1,60.2 L11.1,32.8 C11.1,26.8666667 13.2,21.8 17.4,17.6" id="Shape" fill="#FFCC00"></path>
            <path d="M49.2,42.9 L49.5,43 C57.4,46.1 61.25,51.8333333 61.05,60.2 C61.0166667,60.9 60.7666667,61.4833333 60.3,61.95 C59.8,62.4166667 59.2,62.65 58.5,62.65 C57.8,62.65 57.2166667,62.4 56.75,61.9 C56.2833333,61.4 56.05,60.8 56.05,60.1 C56.15,54.6333333 53.8666667,51.9666667 49.2,52.1 L49.2,42.9 M13,52.1 C8.33333333,51.9666667 6.05,54.6333333 6.15,60.1 C6.15,60.8 5.91666667,61.4 5.45,61.9 C4.98333333,62.4 4.4,62.65 3.7,62.65 C3,62.65 2.4,62.4166667 1.9,61.95 C1.43333333,61.4833333 1.18333333,60.9 1.15,60.2 C0.95,51.8333333 4.8,46.1 12.7,43 L13,42.9 L13,52.1" id="Shape" fill="#FFCC00"></path>
            <path d="M44.5,46.15 C43.1,46.15 41.9,45.65 40.9,44.65 C39.9666667,43.7166667 39.5,42.5833333 39.5,41.25 L39.55,40.85 L49.45,40.85 L49.45,41.25 C49.45,42.5833333 48.95,43.7166667 47.95,44.65 C46.9833333,45.65 45.8333333,46.15 44.5,46.15 M42,48.4 L42.6,48.9 L42.6,49.7 C42.2,50.6 41.55,51.4166667 40.65,52.15 C39.25,53.25 37.5666667,53.8 35.6,53.8 C33.6,53.8 31.9,53.25 30.5,52.15 C29.5,51.4166667 28.8666667,50.5666667 28.6,49.6 C28.5333333,49.3333333 28.5666667,49.0833333 28.7,48.85 C28.8,48.5833333 28.9833333,48.4166667 29.25,48.35 L30.1,48.45 L30.55,49 C30.75,49.6 31.15,50.1333333 31.75,50.6 C32.7833333,51.4 34.0666667,51.8 35.6,51.8 C37.0666667,51.8 38.3333333,51.4 39.4,50.6 L40.7,48.95 C40.7666667,48.6833333 40.9333333,48.5 41.2,48.4 C41.4666667,48.2666667 41.7333333,48.2666667 42,48.4 M31.75,41.25 C31.75,42.5833333 31.25,43.7166667 30.25,44.65 C29.2833333,45.65 28.1333333,46.15 26.8,46.15 C25.4,46.15 24.2,45.65 23.2,44.65 C22.2666667,43.7166667 21.8,42.5833333 21.8,41.25 L21.85,40.85 L31.75,40.85 L31.75,41.25" id="Shape" fill="#AD8A00"></path>
            <path d="M32.6,5.2 C40.2,5.2 46.7166667,7.9 52.15,13.3 C57.5166667,18.6666667 60.2,25.15 60.2,32.75 C60.2,40.3833333 57.5166667,46.9 52.15,52.3 C46.7166667,57.6666667 40.2,60.35 32.6,60.35 C25,60.35 18.5166667,57.6666667 13.15,52.3 C7.71666667,46.9 5,40.3833333 5,32.75 C5,25.15 7.71666667,18.6666667 13.15,13.3 C18.5166667,7.9 25,5.2 32.6,5.2 M37.4,15.75 C35.5333333,17.5833333 34.6,19.8 34.6,22.4 C34.6,25 35.5333333,27.2166667 37.4,29.05 C39.2333333,30.8833333 41.45,31.8 44.05,31.8 C46.65,31.8 48.8666667,30.8833333 50.7,29.05 C52.5333333,27.2166667 53.45,25 53.45,22.4 C53.45,19.8 52.5333333,17.5833333 50.7,15.75 C48.8666667,13.8833333 46.65,12.95 44.05,12.95 C41.45,12.95 39.2333333,13.8833333 37.4,15.75" id="Shape" fill-opacity="0.2" fill="#FFFFFF"></path>
            <path d="M37.4,15.75 C39.2333333,13.8833333 41.45,12.95 44.05,12.95 C46.65,12.95 48.8666667,13.8833333 50.7,15.75 C52.5333333,17.5833333 53.45,19.8 53.45,22.4 C53.45,25 52.5333333,27.2166667 50.7,29.05 C48.8666667,30.8833333 46.65,31.8 44.05,31.8 C41.45,31.8 39.2333333,30.8833333 37.4,29.05 C35.5333333,27.2166667 34.6,25 34.6,22.4 C34.6,19.8 35.5333333,17.5833333 37.4,15.75" id="Shape" fill-opacity="0.301960784" fill="#FFFFFF"></path>
            <path d="M9.6,9.75 C15.9333333,3.38333333 23.6,0.2 32.6,0.2 C41.6,0.2 49.3,3.38333333 55.7,9.75 C62.0333333,16.0833333 65.2,23.75 65.2,32.75 C65.2,41.7833333 62.0333333,49.4833333 55.7,55.85 C49.3,62.1833333 41.6,65.35 32.6,65.35 C23.6,65.35 15.9333333,62.1833333 9.6,55.85 C3.2,49.4833333 0,41.7833333 0,32.75 C0,23.75 3.2,16.0833333 9.6,9.75 M32.6,5.2 C25,5.2 18.5166667,7.9 13.15,13.3 C7.71666667,18.6666667 5,25.15 5,32.75 C5,40.3833333 7.71666667,46.9 13.15,52.3 C18.5166667,57.6666667 25,60.35 32.6,60.35 C40.2,60.35 46.7166667,57.6666667 52.15,52.3 C57.5166667,46.9 60.2,40.3833333 60.2,32.75 C60.2,25.15 57.5166667,18.6666667 52.15,13.3 C46.7166667,7.9 40.2,5.2 32.6,5.2" id="Shape" fill="#FFFFFF"></path>
        </g>
    </g>
</svg>