<?xml version="1.0" encoding="UTF-8"?>
<svg width="92px" height="126px" viewBox="0 0 92 126" xmlns="http://www.w3.org/2000/svg" xmlns:xlink="http://www.w3.org/1999/xlink" version="1.1">
 <!-- Generated by Pixelmator Pro 1.7 -->
 <g id="Group">
  <path id="Shape" d="M84.269 81.663 L76.635 95.381 68.999 89.3 61.293 103.089 53.658 97.008 46.023 110.726 38.388 97.008 30.753 103.089 23.047 89.3 15.411 95.381 7.777 81.663 -0 87.744 -0 70.787 46 94.146 92 70.787 91.904 87.744 Z" fill="#e0871c" fill-opacity="1" stroke="none"/>
  <path id="Shape-1" d="M91.904 103.018 L46.023 126 0 103.018 0 87.744 7.777 81.663 15.411 95.381 23.047 89.3 30.753 103.089 38.388 97.008 46.023 110.726 53.658 97.008 61.293 103.089 68.999 89.3 76.635 95.381 84.269 81.663 91.904 87.744 Z" fill="#bbcbcc" fill-opacity="1" stroke="none"/>
  <path id="Shape-3" d="M0 23.113 C15.365 15.475 30.705 7.815 46.023 0.131 L91.904 23.113 92 70.079 46 93.438 -0 70.079 Z" fill="#e39333" fill-opacity="1" stroke="none"/>
  <path id="Shape-2" d="M46.023 94.886 L0 71.904 0 69.076 46.023 92.058 91.904 69.076 91.904 71.904 Z" fill="#e9ab60" fill-opacity="1" stroke="none"/>
 </g>
</svg>
