<?xml version="1.0" encoding="UTF-8"?>
<svg width="66px" height="92px" viewBox="0 0 66 92" version="1.1" xmlns="http://www.w3.org/2000/svg" xmlns:xlink="http://www.w3.org/1999/xlink">
    <!-- Generator: Sketch 42 (36781) - http://www.bohemiancoding.com/sketch -->
    <title>pink/front</title>
    <desc>Created with Sketch.</desc>
    <defs></defs>
    <g id="Page-1" stroke="none" stroke-width="1" fill="none" fill-rule="evenodd">
        <g id="pink/front" fill-rule="nonzero">
            <path d="M15.95,69 C17.25,67.5666667 18.8333333,66.8666667 20.7,66.9 C22.5,66.8666667 23.95,67.5666667 25.05,69 C25.9833333,70.3333333 26.3,71.9 26,73.7 L22.45,92 L14.1,92 L14.1,73.7 C14.0666667,71.9 14.6833333,70.3333333 15.95,69 M40.15,69 C41.25,67.5666667 42.7,66.8666667 44.5,66.9 C46.3666667,66.8666667 47.95,67.5666667 49.25,69 C50.5166667,70.3333333 51.1333333,71.9 51.1,73.7 L51.1,92 L42.75,92 L39.2,73.7 C38.9,71.9 39.2166667,70.3333333 40.15,69" id="Shape" fill="#F19CB7"></path>
            <path d="M17.4,24.6 C21.6,20.4 26.6666667,18.3 32.6,18.3 C38.5333333,18.3 43.6,20.4 47.8,24.6 C52,28.8 54.1,33.8666667 54.1,39.8 L54.1,70.2 C54.1,73.8333333 52,76.9333333 47.8,79.5 C43.6,82.0333333 38.5333333,83.3 32.6,83.3 C26.6666667,83.3 21.6,82.0333333 17.4,79.5 C13.2,76.9333333 11.1,73.8333333 11.1,70.2 L11.1,39.8 C11.1,33.8666667 13.2,28.8 17.4,24.6" id="Shape" fill="#F19CB7"></path>
            <path d="M5.45,71.9 C4.98333333,72.4 4.4,72.65 3.7,72.65 C3,72.65 2.4,72.4166667 1.9,71.95 C1.43333333,71.4833333 1.18333333,70.9 1.15,70.2 C0.95,61.8333333 4.8,56.1 12.7,53 L13,52.9 L13,62.1 C8.33333333,61.9666667 6.05,64.6333333 6.15,70.1 C6.15,70.8 5.91666667,71.4 5.45,71.9 M63.3,71.95 C62.8,72.4166667 62.2,72.65 61.5,72.65 C60.8,72.65 60.2166667,72.4 59.75,71.9 C59.2833333,71.4 59.05,70.8 59.05,70.1 C59.15,64.6333333 56.8666667,61.9666667 52.2,62.1 L52.2,52.9 L52.5,53 C60.4,56.1 64.25,61.8333333 64.05,70.2 C64.0166667,70.9 63.7666667,71.4833333 63.3,71.95" id="Shape" fill="#F19CB7"></path>
            <path d="M29.15,32.6 C28.1833333,33.6333333 27.7,34.8333333 27.7,36.2 C27.7,37.6 28.1833333,38.7666667 29.15,39.7 C30.1833333,40.7333333 31.4333333,41.25 32.9,41.25 C34.2333333,41.25 35.4,40.7333333 36.4,39.7 C37.4333333,38.7666667 37.95,37.6 37.95,36.2 C37.95,34.8333333 37.4333333,33.6333333 36.4,32.6 C35.4,31.6 34.2333333,31.1 32.9,31.1 C31.4333333,31.1 30.1833333,31.6 29.15,32.6 M27.35,30.85 C28.8833333,29.35 30.75,28.6 32.95,28.6 C34.95,28.6 36.7,29.35 38.2,30.85 C39.7666667,32.4166667 40.55,34.2333333 40.55,36.3 L40.45,37.6 C40.15,39.1 39.4,40.4166667 38.2,41.55 C36.7,43.0833333 34.95,43.85 32.95,43.85 C30.75,43.85 28.8833333,43.0833333 27.35,41.55 C26.2166667,40.4166667 25.55,39.1 25.35,37.6 L25.2,36.3 C25.2,34.2333333 25.9166667,32.4166667 27.35,30.85" id="Shape" fill="#FFFFFF"></path>
            <path d="M29.15,32.6 C30.1833333,31.6 31.4333333,31.1 32.9,31.1 C34.2333333,31.1 35.4,31.6 36.4,32.6 C37.4333333,33.6333333 37.95,34.8333333 37.95,36.2 C37.95,37.6 37.4333333,38.7666667 36.4,39.7 C35.4,40.7333333 34.2333333,41.25 32.9,41.25 C31.4333333,41.25 30.1833333,40.7333333 29.15,39.7 C28.1833333,38.7666667 27.7,37.6 27.7,36.2 C27.7,34.8333333 28.1833333,33.6333333 29.15,32.6 M39.95,49.3 C40.0833333,49.6 40.0833333,49.8833333 39.95,50.15 C39.55,51.0833333 38.8833333,51.9166667 37.95,52.65 C36.5166667,53.8166667 34.7833333,54.4 32.75,54.4 C30.6833333,54.4 28.95,53.8166667 27.55,52.65 C26.4833333,51.9166667 25.8333333,51.05 25.6,50.05 C25.5,49.75 25.5333333,49.5 25.7,49.3 C25.8,49 25.9833333,48.8333333 26.25,48.8 L27.15,48.85 L27.6,49.4 L28.35,50.65 L28.8,51.1 C29.9,51.9333333 31.2166667,52.35 32.75,52.35 C34.2833333,52.35 35.6,51.9333333 36.7,51.1 L37.3,50.6 L38,49.35 C38.1,49.0833333 38.2833333,48.9 38.55,48.8 C38.7833333,48.6666667 39.0333333,48.6666667 39.3,48.8 L39.35,48.8 C39.5833333,48.8666667 39.7833333,49.0333333 39.95,49.3" id="Shape" fill="#A55B72"></path>
            <path d="M60.2,32.75 C60.2,25.15 57.5166667,18.6666667 52.15,13.3 C46.7166667,7.9 40.2,5.2 32.6,5.2 C25,5.2 18.5166667,7.9 13.15,13.3 C7.71666667,18.6666667 5,25.15 5,32.75 C5,40.3833333 7.71666667,46.9 13.15,52.3 C18.5166667,57.6666667 25,60.35 32.6,60.35 C40.2,60.35 46.7166667,57.6666667 52.15,52.3 C57.5166667,46.9 60.2,40.3833333 60.2,32.75 M55.7,9.75 C62.0333333,16.0833333 65.2,23.75 65.2,32.75 C65.2,41.7833333 62.0333333,49.4833333 55.7,55.85 C49.3,62.1833333 41.6,65.35 32.6,65.35 C23.6,65.35 15.9333333,62.1833333 9.6,55.85 C3.2,49.4833333 0,41.7833333 0,32.75 C0,23.75 3.2,16.0833333 9.6,9.75 C15.9333333,3.38333333 23.6,0.2 32.6,0.2 C41.6,0.2 49.3,3.38333333 55.7,9.75" id="Shape" fill="#FFFFFF"></path>
            <path d="M60.2,32.75 C60.2,40.3833333 57.5166667,46.9 52.15,52.3 C46.7166667,57.6666667 40.2,60.35 32.6,60.35 C25,60.35 18.5166667,57.6666667 13.15,52.3 C7.71666667,46.9 5,40.3833333 5,32.75 C5,25.15 7.71666667,18.6666667 13.15,13.3 C18.5166667,7.9 25,5.2 32.6,5.2 C40.2,5.2 46.7166667,7.9 52.15,13.3 C57.5166667,18.6666667 60.2,25.15 60.2,32.75 M53.45,22.4 C53.45,19.8 52.5333333,17.5833333 50.7,15.75 C48.8666667,13.8833333 46.65,12.95 44.05,12.95 C41.45,12.95 39.2333333,13.8833333 37.4,15.75 C35.5333333,17.5833333 34.6,19.8 34.6,22.4 C34.6,25 35.5333333,27.2166667 37.4,29.05 C39.2333333,30.8833333 41.45,31.8 44.05,31.8 C46.65,31.8 48.8666667,30.8833333 50.7,29.05 C52.5333333,27.2166667 53.45,25 53.45,22.4" id="Shape" fill-opacity="0.2" fill="#FFFFFF"></path>
            <path d="M53.45,22.4 C53.45,25 52.5333333,27.2166667 50.7,29.05 C48.8666667,30.8833333 46.65,31.8 44.05,31.8 C41.45,31.8 39.2333333,30.8833333 37.4,29.05 C35.5333333,27.2166667 34.6,25 34.6,22.4 C34.6,19.8 35.5333333,17.5833333 37.4,15.75 C39.2333333,13.8833333 41.45,12.95 44.05,12.95 C46.65,12.95 48.8666667,13.8833333 50.7,15.75 C52.5333333,17.5833333 53.45,19.8 53.45,22.4" id="Shape" fill-opacity="0.301960784" fill="#FFFFFF"></path>
            <path d="M27.1,70.65 C27.8333333,70.85 28.4,71.3 28.8,72 C29.2,72.7 29.3166667,73.4333333 29.15,74.2 C28.9166667,74.9666667 28.45,75.55 27.75,75.95 C27.05,76.35 26.3333333,76.45 25.6,76.25 C24.8,76.05 24.2,75.6 23.8,74.9 C23.4,74.2 23.3166667,73.4666667 23.55,72.7 C23.7166667,71.9333333 24.15,71.35 24.85,70.95 C25.55,70.55 26.3,70.45 27.1,70.65 M36.5,73.35 C36.8,72.2833333 37.4333333,71.4833333 38.4,70.95 C39.3333333,70.3833333 40.3166667,70.25 41.35,70.55 C42.4166667,70.8166667 43.2166667,71.4166667 43.75,72.35 C44.3166667,73.3166667 44.45,74.3333333 44.15,75.4 C43.8833333,76.4333333 43.2833333,77.2333333 42.35,77.8 C41.3833333,78.3333333 40.3666667,78.4666667 39.3,78.2 C38.2666667,77.9 37.4666667,77.2666667 36.9,76.3 C36.3666667,75.3666667 36.2333333,74.3833333 36.5,73.35 M31.1,76.05 L32.7,75.85 C33.2333333,75.9833333 33.6333333,76.3 33.9,76.8 C34.2,77.3 34.2833333,77.8166667 34.15,78.35 C33.9833333,78.9166667 33.65,79.3333333 33.15,79.6 L31.6,79.8 C31.0666667,79.6666667 30.65,79.35 30.35,78.85 C30.0833333,78.35 30.0166667,77.8333333 30.15,77.3 C30.3166667,76.7666667 30.6333333,76.35 31.1,76.05" id="Shape" fill-opacity="0.501960784" fill="#F3AFC5"></path>
        </g>
    </g>
</svg>