<?xml version="1.0" encoding="UTF-8"?>
<svg width="68px" height="94px" viewBox="0 0 68 94" version="1.1" xmlns="http://www.w3.org/2000/svg" xmlns:xlink="http://www.w3.org/1999/xlink">
    <!-- Generator: Sketch 42 (36781) - http://www.bohemiancoding.com/sketch -->
    <title>pink/jump</title>
    <desc>Created with Sketch.</desc>
    <defs></defs>
    <g id="Page-1" stroke="none" stroke-width="1" fill="none" fill-rule="evenodd">
        <g id="pink/jump" fill-rule="nonzero">
            <path d="M56.3,89.7 C54.8333333,90.5666667 53.5833333,90.45 52.55,89.35 C51.95,83.3166667 48.5666667,79.2833333 42.4,77.25 C43.6666667,73.1833333 46.2,70.3333333 50,68.7 C56.9,74.7666667 59.8,80.25 58.7,85.15 C58.2666667,87.05 57.4666667,88.5666667 56.3,89.7 M13.3,75.3 C17.1666667,73.5333333 20.9833333,73.5333333 24.75,75.3 C24.8166667,84.5 22.6333333,90.3166667 18.2,92.75 C16.5333333,93.6833333 14.9166667,94.1 13.35,94 C11.5833333,93.4666667 10.8833333,92.35 11.25,90.65 C15.15,86.2833333 15.8333333,81.1666667 13.3,75.3" id="Shape" fill="#F19CB7"></path>
            <path d="M47.8,25.1 C52,29.3 54.1,34.3666667 54.1,40.3 L54.1,70.7 C54.1,74.3333333 52,77.4333333 47.8,80 C43.6,82.5333333 38.5333333,83.8 32.6,83.8 C26.6666667,83.8 21.6,82.5333333 17.4,80 C13.2,77.4333333 11.1,74.3333333 11.1,70.7 L11.1,40.3 C11.1,34.3666667 13.2,29.3 17.4,25.1 C21.6,20.9 26.6666667,18.8 32.6,18.8 C38.5333333,18.8 43.6,20.9 47.8,25.1" id="Shape" fill="#F19CB7"></path>
            <path d="M37.6,54.8 C36.9,54.8 36.3,54.55 35.8,54.05 C35.3333333,53.5833333 35.1,53 35.1,52.3 C35.1,51.6 35.3333333,51 35.8,50.5 C36.3,50.0333333 36.9,49.8 37.6,49.8 C38.3,49.8 38.8833333,50.0333333 39.35,50.5 C39.85,51 40.1,51.6 40.1,52.3 C40.1,53 39.85,53.5833333 39.35,54.05 C38.8833333,54.55 38.3,54.8 37.6,54.8" id="Shape" fill="#A55B72"></path>
            <path d="M45.45,38.25 C45.15,39.75 44.4,41.0666667 43.2,42.2 C41.7,43.7333333 39.95,44.5 37.95,44.5 C35.75,44.5 33.8833333,43.7333333 32.35,42.2 C31.2166667,41.0666667 30.55,39.75 30.35,38.25 L30.2,36.95 C30.2,34.8833333 30.9166667,33.0666667 32.35,31.5 C33.8833333,30 35.75,29.25 37.95,29.25 C39.95,29.25 41.7,30 43.2,31.5 C44.7666667,33.0666667 45.55,34.8833333 45.55,36.95 L45.45,38.25 M41.4,40.35 C42.4333333,39.4166667 42.95,38.25 42.95,36.85 C42.95,35.4833333 42.4333333,34.2833333 41.4,33.25 C40.4,32.25 39.2333333,31.75 37.9,31.75 C36.4333333,31.75 35.1833333,32.25 34.15,33.25 C33.1833333,34.2833333 32.7,35.4833333 32.7,36.85 C32.7,38.25 33.1833333,39.4166667 34.15,40.35 C35.1833333,41.3833333 36.4333333,41.9 37.9,41.9 C39.2333333,41.9 40.4,41.3833333 41.4,40.35" id="Shape" fill="#FFFFFF"></path>
            <path d="M41.4,40.35 C40.4,41.3833333 39.2333333,41.9 37.9,41.9 C36.4333333,41.9 35.1833333,41.3833333 34.15,40.35 C33.1833333,39.4166667 32.7,38.25 32.7,36.85 C32.7,35.4833333 33.1833333,34.2833333 34.15,33.25 C35.1833333,32.25 36.4333333,31.75 37.9,31.75 C39.2333333,31.75 40.4,32.25 41.4,33.25 C42.4333333,34.2833333 42.95,35.4833333 42.95,36.85 C42.95,38.25 42.4333333,39.4166667 41.4,40.35" id="Shape" fill="#A55B72"></path>
            <path d="M6.15,70.6 C6.15,71.3 5.91666667,71.9 5.45,72.4 C4.98333333,72.9 4.4,73.15 3.7,73.15 C3,73.15 2.4,72.9166667 1.9,72.45 C1.43333333,71.9833333 1.18333333,71.4 1.15,70.7 C0.95,62.3333333 4.8,56.6 12.7,53.5 L13,53.4 L13,62.6 C8.33333333,62.4666667 6.05,65.1333333 6.15,70.6 M66.8,55.45 C62.8,62.7833333 56.6,65.8166667 48.2,64.55 L47.9,64.5 L52.5,56.5 C56.4666667,58.9666667 59.7833333,57.8166667 62.45,53.05 C62.8166667,52.4166667 63.3166667,52 63.95,51.8 C64.6166667,51.6333333 65.25,51.7166667 65.85,52.05 C66.45,52.4166667 66.85,52.9166667 67.05,53.55 C67.2166667,54.1833333 67.1333333,54.8166667 66.8,55.45" id="Shape" fill="#F19CB7"></path>
            <path d="M60.2,33.25 C60.2,25.65 57.5166667,19.1666667 52.15,13.8 C46.7166667,8.4 40.2,5.7 32.6,5.7 C25,5.7 18.5166667,8.4 13.15,13.8 C7.71666667,19.1666667 5,25.65 5,33.25 C5,40.8833333 7.71666667,47.4 13.15,52.8 C18.5166667,58.1666667 25,60.85 32.6,60.85 C40.2,60.85 46.7166667,58.1666667 52.15,52.8 C57.5166667,47.4 60.2,40.8833333 60.2,33.25 M55.7,10.25 C62.0333333,16.5833333 65.2,24.25 65.2,33.25 C65.2,42.2833333 62.0333333,49.9833333 55.7,56.35 C49.3,62.6833333 41.6,65.85 32.6,65.85 C23.6,65.85 15.9333333,62.6833333 9.6,56.35 C3.2,49.9833333 0,42.2833333 0,33.25 C0,24.25 3.2,16.5833333 9.6,10.25 C15.9333333,3.88333333 23.6,0.7 32.6,0.7 C41.6,0.7 49.3,3.88333333 55.7,10.25" id="Shape" fill="#FFFFFF"></path>
            <path d="M60.2,33.25 C60.2,40.8833333 57.5166667,47.4 52.15,52.8 C46.7166667,58.1666667 40.2,60.85 32.6,60.85 C25,60.85 18.5166667,58.1666667 13.15,52.8 C7.71666667,47.4 5,40.8833333 5,33.25 C5,25.65 7.71666667,19.1666667 13.15,13.8 C18.5166667,8.4 25,5.7 32.6,5.7 C40.2,5.7 46.7166667,8.4 52.15,13.8 C57.5166667,19.1666667 60.2,25.65 60.2,33.25 M53.45,22.9 C53.45,20.3 52.5333333,18.0833333 50.7,16.25 C48.8666667,14.3833333 46.65,13.45 44.05,13.45 C41.45,13.45 39.2333333,14.3833333 37.4,16.25 C35.5333333,18.0833333 34.6,20.3 34.6,22.9 C34.6,25.5 35.5333333,27.7166667 37.4,29.55 C39.2333333,31.3833333 41.45,32.3 44.05,32.3 C46.65,32.3 48.8666667,31.3833333 50.7,29.55 C52.5333333,27.7166667 53.45,25.5 53.45,22.9" id="Shape" fill-opacity="0.2" fill="#FFFFFF"></path>
            <path d="M53.45,22.9 C53.45,25.5 52.5333333,27.7166667 50.7,29.55 C48.8666667,31.3833333 46.65,32.3 44.05,32.3 C41.45,32.3 39.2333333,31.3833333 37.4,29.55 C35.5333333,27.7166667 34.6,25.5 34.6,22.9 C34.6,20.3 35.5333333,18.0833333 37.4,16.25 C39.2333333,14.3833333 41.45,13.45 44.05,13.45 C46.65,13.45 48.8666667,14.3833333 50.7,16.25 C52.5333333,18.0833333 53.45,20.3 53.45,22.9" id="Shape" fill-opacity="0.301960784" fill="#FFFFFF"></path>
            <path d="M31.1,76.55 L32.7,76.35 C33.2333333,76.4833333 33.6333333,76.8 33.9,77.3 C34.2,77.8 34.2833333,78.3166667 34.15,78.85 C33.9833333,79.4166667 33.65,79.8333333 33.15,80.1 L31.6,80.3 C31.0666667,80.1666667 30.65,79.85 30.35,79.35 C30.0833333,78.85 30.0166667,78.3333333 30.15,77.8 C30.3166667,77.2666667 30.6333333,76.85 31.1,76.55 M24.85,71.45 C25.55,71.05 26.3,70.95 27.1,71.15 C27.8333333,71.35 28.4,71.8 28.8,72.5 C29.2,73.2 29.3166667,73.9333333 29.15,74.7 C28.9166667,75.4666667 28.45,76.05 27.75,76.45 L25.6,76.75 C24.8,76.55 24.2,76.1 23.8,75.4 C23.4,74.7 23.3166667,73.9666667 23.55,73.2 C23.7166667,72.4333333 24.15,71.85 24.85,71.45 M36.9,76.8 C36.3666667,75.8666667 36.2333333,74.8833333 36.5,73.85 C36.8,72.7833333 37.4333333,71.9833333 38.4,71.45 C39.3333333,70.8833333 40.3166667,70.75 41.35,71.05 C42.4166667,71.3166667 43.2166667,71.9166667 43.75,72.85 C44.3166667,73.8166667 44.45,74.8333333 44.15,75.9 C43.8833333,76.9333333 43.2833333,77.7333333 42.35,78.3 C41.3833333,78.8333333 40.3666667,78.9666667 39.3,78.7 C38.2666667,78.4 37.4666667,77.7666667 36.9,76.8" id="Shape" fill-opacity="0.501960784" fill="#F3AFC5"></path>
        </g>
    </g>
</svg>