
<svg width="68px" height="72px" viewBox="282 488 68 72" version="1.1" xmlns="http://www.w3.org/2000/svg" xmlns:xlink="http://www.w3.org/1999/xlink">
    <!-- Generator: Sketch 42 (36781) - http://www.bohemiancoding.com/sketch -->
    <desc>Created with Sketch.</desc>
    <defs></defs>
    <g id="beige/duck" stroke="none" stroke-width="1" fill="none" fill-rule="evenodd" transform="translate(282.000000, 488.000000)">
        <path d="M5.85,55.9 C5.68333333,56.5666667 5.3,57.0833333 4.7,57.45 L2.8,57.7 C2.13333333,57.5333333 1.61666667,57.1666667 1.25,56.6 C0.916666667,56 0.816666667,55.3666667 0.95,54.7 C2.91666667,46.6 8.13333333,42.0666667 16.6,41.1 L16.9,41.05 L14.5,49.95 C10.0333333,48.6166667 7.15,50.6 5.85,55.9 M50.35,50.45 L50.65,50.6 C57.45,55.6666667 59.6666667,62.2 57.3,70.2 C57.1,70.8666667 56.7166667,71.3666667 56.15,71.7 L54.25,71.9 C53.5833333,71.7333333 53.0833333,71.35 52.75,70.75 C52.45,70.1166667 52.3833333,69.4666667 52.55,68.8 C54.05,63.5666667 52.5166667,60.4166667 47.95,59.35 L50.35,50.45" id="Shape" fill="#E0D1AF" fill-rule="nonzero"></path>
        <path d="M13.05,48.5 C14.5833333,47.0666667 16.3,46.3666667 18.2,46.4 C19.9666667,46.3666667 21.2833333,47.0666667 22.15,48.5 C22.8166667,49.8333333 22.8333333,51.4 22.2,53.2 L15.15,71.5 L6.8,71.5 L10.3,53.2 C10.6,51.4 11.5166667,49.8333333 13.05,48.5 M38.45,48.5 C39.6833333,47.0666667 41.2,46.3666667 43,46.4 C44.8666667,46.3666667 46.3833333,47.0666667 47.55,48.5 C48.75,49.8333333 49.25,51.4 49.05,53.2 L47.7,71.5 L39.35,71.5 L37.15,53.2 C37.0166667,51.4 37.45,49.8333333 38.45,48.5" id="Shape" fill="#E0D1AF" fill-rule="nonzero"></path>
        <path d="M25.2,12.45 C30.3666667,9.48333333 35.8166667,8.76666667 41.55,10.3 C47.2833333,11.8333333 51.6166667,15.1833333 54.55,20.35 C57.55,25.4833333 58.2833333,30.9166667 56.75,36.65 L50.15,61.15 C49.2166667,64.6833333 46.3833333,67.15 41.65,68.55 C36.95,69.8833333 31.7333333,69.7833333 26,68.25 C20.2666667,66.7166667 15.7,64.1833333 12.3,60.65 C8.9,57.1166667 7.66666667,53.5833333 8.6,50.05 L15.2,25.55 C16.7333333,19.8166667 20.0666667,15.45 25.2,12.45" id="Shape" fill="#E0D1AF" fill-rule="nonzero"></path>
        <path d="M28.9,34.8 C27.6333333,34.4333333 26.6666667,33.6666667 26,32.5 C25.3333333,31.3666667 25.1666667,30.15 25.5,28.85 C25.8333333,27.5833333 26.5833333,26.5833333 27.75,25.85 C28.85,25.2166667 29.9833333,25.0333333 31.15,25.3 L31.45,25.3 L31.6,25.35 L31.55,25.4 L48.55,29.95 L48.6,29.9 L48.75,29.95 L49.4,30.2 C50.3333333,30.5666667 51.0833333,31.25 51.65,32.25 C52.35,33.4833333 52.5333333,34.7333333 52.2,36 C51.8666667,37.3 51.1,38.2666667 49.9,38.9 C48.7333333,39.6 47.55,39.8 46.35,39.5 L46.2,39.45 L46.05,39.4 L29.05,34.85 L28.9,34.8" id="Shape" fill="#AF9F7A" fill-rule="nonzero"></path>
        <path d="M35.55,45.8 C34.85,45.6 34.3166667,45.2 33.95,44.6 C33.6166667,44.0333333 33.55,43.4 33.75,42.7 C33.9166667,42.0333333 34.3,41.5333333 34.9,41.2 C35.4666667,40.8333333 36.1,40.75 36.8,40.95 C37.4666667,41.1166667 37.9833333,41.5 38.35,42.1 C38.6833333,42.7 38.7666667,43.3333333 38.6,44 C38.4,44.7 38,45.2 37.4,45.5 C36.8333333,45.8666667 36.2166667,45.9666667 35.55,45.8" id="Shape" fill="#AF9F7A" fill-rule="nonzero"></path>
        <path d="M7.75,32.95 C7.75,25.35 10.4666667,18.8666667 15.9,13.5 C21.2666667,8.1 27.75,5.4 35.35,5.4 C42.95,5.4 49.4666667,8.1 54.9,13.5 C60.2666667,18.8666667 62.95,25.35 62.95,32.95 C62.95,40.5833333 60.2666667,47.1 54.9,52.5 C49.4666667,57.8666667 42.95,60.55 35.35,60.55 C27.75,60.55 21.2666667,57.8666667 15.9,52.5 C10.4666667,47.1 7.75,40.5833333 7.75,32.95 M37.35,22.6 C37.35,25.2 38.2833333,27.4166667 40.15,29.25 C41.9833333,31.0833333 44.2,32 46.8,32 C49.4,32 51.6166667,31.0833333 53.45,29.25 C55.2833333,27.4166667 56.2,25.2 56.2,22.6 C56.2,20 55.2833333,17.7833333 53.45,15.95 C51.6166667,14.0833333 49.4,13.15 46.8,13.15 C44.2,13.15 41.9833333,14.0833333 40.15,15.95 C38.2833333,17.7833333 37.35,20 37.35,22.6" id="Shape" fill-opacity="0.2" fill="#FFFFFF" fill-rule="nonzero"></path>
        <path d="M37.35,22.6 C37.35,20 38.2833333,17.7833333 40.15,15.95 C41.9833333,14.0833333 44.2,13.15 46.8,13.15 C49.4,13.15 51.6166667,14.0833333 53.45,15.95 C55.2833333,17.7833333 56.2,20 56.2,22.6 C56.2,25.2 55.2833333,27.4166667 53.45,29.25 C51.6166667,31.0833333 49.4,32 46.8,32 C44.2,32 41.9833333,31.0833333 40.15,29.25 C38.2833333,27.4166667 37.35,25.2 37.35,22.6" id="Shape" fill-opacity="0.301960784" fill="#FFFFFF" fill-rule="nonzero"></path>
        <path d="M7.75,32.95 C7.75,40.5833333 10.4666667,47.1 15.9,52.5 C21.2666667,57.8666667 27.75,60.55 35.35,60.55 C42.95,60.55 49.4666667,57.8666667 54.9,52.5 C60.2666667,47.1 62.95,40.5833333 62.95,32.95 C62.95,25.35 60.2666667,18.8666667 54.9,13.5 C49.4666667,8.1 42.95,5.4 35.35,5.4 C27.75,5.4 21.2666667,8.1 15.9,13.5 C10.4666667,18.8666667 7.75,25.35 7.75,32.95 M12.35,56.05 C5.95,49.6833333 2.75,41.9833333 2.75,32.95 C2.75,23.95 5.95,16.2833333 12.35,9.95 C18.6833333,3.58333333 26.35,0.4 35.35,0.4 C44.35,0.4 52.05,3.58333333 58.45,9.95 C64.7833333,16.2833333 67.95,23.95 67.95,32.95 C67.95,41.9833333 64.7833333,49.6833333 58.45,56.05 C52.05,62.3833333 44.35,65.55 35.35,65.55 C26.35,65.55 18.6833333,62.3833333 12.35,56.05" id="Shape" fill="#FFFFFF" fill-rule="nonzero"></path>
    </g>
</svg>
