<svg width="66px" height="93px" viewBox="120 468 66 93" version="1.1" xmlns="http://www.w3.org/2000/svg" xmlns:xlink="http://www.w3.org/1999/xlink">
    <!-- Generator: Sketch 42 (36781) - http://www.bohemiancoding.com/sketch -->
    <desc>Created with Sketch.</desc>
    <defs></defs>
    <g id="beige/lean" stroke="none" stroke-width="1" fill="none" fill-rule="evenodd" transform="translate(120.000000, 468.000000)">
        <path d="M60.3,71.95 C59.8,72.4166667 59.2,72.65 58.5,72.65 C57.8,72.65 57.2166667,72.4 56.75,71.9 C56.2833333,71.4 56.05,70.8 56.05,70.1 C56.15,64.6333333 53.8666667,61.9666667 49.2,62.1 L49.2,52.9 L49.5,53 C57.4,56.1 61.25,61.8333333 61.05,70.2 C61.0166667,70.9 60.7666667,71.4833333 60.3,71.95 M13,52.9 L13,62.1 C8.33333333,61.9666667 6.05,64.6333333 6.15,70.1 C6.15,70.8 5.91666667,71.4 5.45,71.9 C4.98333333,72.4 4.4,72.65 3.7,72.65 C3,72.65 2.4,72.4166667 1.9,71.95 C1.43333333,71.4833333 1.18333333,70.9 1.15,70.2 C0.95,61.8333333 4.8,56.1 12.7,53 L13,52.9" id="Shape" fill="#E0D1AF" fill-rule="nonzero"></path>
        <path d="M54.1,71.6 L53.8,71.6 C53.0333333,74.2333333 51.0333333,76.5333333 47.8,78.5 C43.6,81.0333333 38.5333333,82.3 32.6,82.3 C26.6666667,82.3 21.6,81.0333333 17.4,78.5 C14.1666667,76.5333333 12.1833333,74.2333333 11.45,71.6 L11.1,71.6 L11.1,32.8 C11.1,26.8666667 13.2,21.8 17.4,17.6 C21.6,13.4 26.6666667,11.3 32.6,11.3 C38.5333333,11.3 43.6,13.4 47.8,17.6 C52,21.8 54.1,26.8666667 54.1,32.8 L54.1,71.6" id="Shape" fill="#E0D1AF" fill-rule="nonzero"></path>
        <path d="M42.1,39.25 L42.1,40.05 C41.7,40.95 41.05,41.7666667 40.15,42.5 C38.75,43.6 37.0666667,44.15 35.1,44.15 C33.1,44.15 31.4,43.6 30,42.5 C29,41.7666667 28.3666667,40.9166667 28.1,39.95 C28.0333333,39.6833333 28.0666667,39.4333333 28.2,39.2 C28.3,38.9333333 28.4833333,38.7666667 28.75,38.7 L29.6,38.8 L30.05,39.35 C30.25,39.95 30.65,40.4833333 31.25,40.95 C32.2833333,41.75 33.5666667,42.15 35.1,42.15 C36.5666667,42.15 37.8333333,41.75 38.9,40.95 L40.2,39.3 L40.7,38.75 C40.9666667,38.6166667 41.2333333,38.6166667 41.5,38.75 L42.1,39.25 M44,26.65 L44.75,26.7 C45.75,26.8333333 46.65,27.3 47.45,28.1 C48.45,29.1 48.95,30.2666667 48.95,31.6 C48.95,32.9333333 48.45,34.0666667 47.45,35 C46.5166667,35.9666667 45.4166667,36.4666667 44.15,36.5 L44,36.5 L43.85,36.5 L26.25,36.5 L26.1,36.5 C24.8,36.4666667 23.6666667,35.9666667 22.7,35 C21.7666667,34.0666667 21.3,32.9333333 21.3,31.6 C21.3,30.2666667 21.7666667,29.1 22.7,28.1 C23.6,27.2333333 24.65,26.7666667 25.85,26.7 L26.1,26.65 L26.25,26.65 L26.25,26.7 L43.85,26.7 L43.85,26.65 L44,26.65" id="Shape" fill="#AF9F7A" fill-rule="nonzero"></path>
        <path d="M50.7,15.75 C48.8666667,13.8833333 46.65,12.95 44.05,12.95 C41.45,12.95 39.2333333,13.8833333 37.4,15.75 C35.5333333,17.5833333 34.6,19.8 34.6,22.4 C34.6,25 35.5333333,27.2166667 37.4,29.05 C39.2333333,30.8833333 41.45,31.8 44.05,31.8 C46.65,31.8 48.8666667,30.8833333 50.7,29.05 C52.5333333,27.2166667 53.45,25 53.45,22.4 C53.45,19.8 52.5333333,17.5833333 50.7,15.75 M52.15,52.3 C46.7166667,57.6666667 40.2,60.35 32.6,60.35 C25,60.35 18.5166667,57.6666667 13.15,52.3 C7.71666667,46.9 5,40.3833333 5,32.75 C5,25.15 7.71666667,18.6666667 13.15,13.3 C18.5166667,7.9 25,5.2 32.6,5.2 C40.2,5.2 46.7166667,7.9 52.15,13.3 C57.5166667,18.6666667 60.2,25.15 60.2,32.75 C60.2,40.3833333 57.5166667,46.9 52.15,52.3" id="Shape" fill-opacity="0.2" fill="#FFFFFF" fill-rule="nonzero"></path>
        <path d="M50.7,15.75 C52.5333333,17.5833333 53.45,19.8 53.45,22.4 C53.45,25 52.5333333,27.2166667 50.7,29.05 C48.8666667,30.8833333 46.65,31.8 44.05,31.8 C41.45,31.8 39.2333333,30.8833333 37.4,29.05 C35.5333333,27.2166667 34.6,25 34.6,22.4 C34.6,19.8 35.5333333,17.5833333 37.4,15.75 C39.2333333,13.8833333 41.45,12.95 44.05,12.95 C46.65,12.95 48.8666667,13.8833333 50.7,15.75" id="Shape" fill-opacity="0.301960784" fill="#FFFFFF" fill-rule="nonzero"></path>
        <path d="M65.2,32.75 C65.2,41.7833333 62.0333333,49.4833333 55.7,55.85 C49.3,62.1833333 41.6,65.35 32.6,65.35 C23.6,65.35 15.9333333,62.1833333 9.6,55.85 C3.2,49.4833333 0,41.7833333 0,32.75 C0,23.75 3.2,16.0833333 9.6,9.75 C15.9333333,3.38333333 23.6,0.2 32.6,0.2 C41.6,0.2 49.3,3.38333333 55.7,9.75 C62.0333333,16.0833333 65.2,23.75 65.2,32.75 M52.15,52.3 C57.5166667,46.9 60.2,40.3833333 60.2,32.75 C60.2,25.15 57.5166667,18.6666667 52.15,13.3 C46.7166667,7.9 40.2,5.2 32.6,5.2 C25,5.2 18.5166667,7.9 13.15,13.3 C7.71666667,18.6666667 5,25.15 5,32.75 C5,40.3833333 7.71666667,46.9 13.15,52.3 C18.5166667,57.6666667 25,60.35 32.6,60.35 C40.2,60.35 46.7166667,57.6666667 52.15,52.3" id="Shape" fill="#FFFFFF" fill-rule="nonzero"></path>
        <path d="M50.55,73.7 L49.2,92 L40.85,92 L38.65,73.7 C38.5166667,71.9 38.95,70.3333333 39.95,69 C41.1833333,67.5666667 42.7,66.8666667 44.5,66.9 C46.3666667,66.8666667 47.8833333,67.5666667 49.05,69 C50.25,70.3333333 50.75,71.9 50.55,73.7 M15.55,69 C17.0833333,67.5666667 18.8,66.8666667 20.7,66.9 C22.4666667,66.8666667 23.7833333,67.5666667 24.65,69 C25.3166667,70.3333333 25.3333333,71.9 24.7,73.7 L17.65,92 L9.3,92 L12.8,73.7 C13.1,71.9 14.0166667,70.3333333 15.55,69" id="Shape" fill="#E0D1AF" fill-rule="nonzero"></path>
    </g>
</svg>
