<?xml version="1.0" encoding="UTF-8"?>
<svg width="70px" height="72px" viewBox="0 0 70 72" version="1.1" xmlns="http://www.w3.org/2000/svg" xmlns:xlink="http://www.w3.org/1999/xlink">
    <!-- Generator: Sketch 42 (36781) - http://www.bohemiancoding.com/sketch -->
    <title>green/duck</title>
    <desc>Created with Sketch.</desc>
    <defs></defs>
    <g id="Page-1" stroke="none" stroke-width="1" fill="none" fill-rule="evenodd">
        <g id="green/duck" fill-rule="nonzero">
            <path d="M51.7,71.35 L43.35,71.35 L41.15,53.05 C41.0166667,51.25 41.45,49.6833333 42.45,48.35 C43.6833333,46.9166667 45.2,46.2166667 47,46.25 C48.8666667,46.2166667 50.3833333,46.9166667 51.55,48.35 C52.75,49.6833333 53.25,51.25 53.05,53.05 L51.7,71.35 M18.2,46.25 C19.9666667,46.2166667 21.2833333,46.9166667 22.15,48.35 C22.8166667,49.6833333 22.8333333,51.25 22.2,53.05 L15.15,71.35 L6.8,71.35 L10.3,53.05 C10.6,51.25 11.5166667,49.6833333 13.05,48.35 C14.5833333,46.9166667 16.3,46.2166667 18.2,46.25" id="Shape" fill="#6FC4A9"></path>
            <path d="M58.75,36.5 L52.15,61 C51.2166667,64.5333333 48.3833333,67 43.65,68.4 C38.95,69.7333333 33.7333333,69.6333333 28,68.1 C22.2666667,66.5666667 17.7,64.0333333 14.3,60.5 C10.9,56.9666667 9.66666667,53.4333333 10.6,49.9 L17.2,25.4 C18.7333333,19.6666667 22.0666667,15.3 27.2,12.3 C32.3666667,9.33333333 37.8166667,8.61666667 43.55,10.15 C49.2833333,11.6833333 53.6166667,15.0333333 56.55,20.2 C59.55,25.3333333 60.2833333,30.7666667 58.75,36.5" id="Shape" fill="#6FC4A9"></path>
            <path d="M49.7,40.8 C51,41.1333333 51.9833333,41.9 52.65,43.1 C53.3833333,44.3 53.5666667,45.55 53.2,46.85 C52.8666667,48.1166667 52.1,49.0833333 50.9,49.75 C49.7,50.45 48.45,50.6333333 47.15,50.3 C45.8166667,49.9333333 44.8,49.1333333 44.1,47.9 C43.4333333,46.7666667 43.2666667,45.5666667 43.6,44.3 C43.9666667,43 44.7166667,41.9833333 45.85,41.25 C47.0833333,40.5833333 48.3666667,40.4333333 49.7,40.8 M28.75,36.7 C29.9833333,36 31.2666667,35.8333333 32.6,36.2 C33.9,36.5666667 34.8833333,37.3333333 35.55,38.5 C36.2833333,39.7333333 36.4666667,41 36.1,42.3 C35.7666667,43.5666667 35,44.5166667 33.8,45.15 C32.6,45.8833333 31.35,46.0666667 30.05,45.7 C28.7166667,45.3333333 27.7,44.55 27,43.35 C26.3333333,42.1833333 26.1666667,40.9666667 26.5,39.7 C26.8666667,38.4 27.6166667,37.4 28.75,36.7" id="Shape" fill="#347E67"></path>
            <path d="M38.6,55.85 C38.1333333,56.35 37.55,56.6 36.85,56.6 C36.15,56.6 35.55,56.35 35.05,55.85 C34.5833333,55.3833333 34.35,54.8 34.35,54.1 C34.35,53.4 34.5833333,52.8 35.05,52.3 C35.55,51.8333333 36.15,51.6 36.85,51.6 C37.55,51.6 38.1333333,51.8333333 38.6,52.3 C39.1,52.8 39.35,53.4 39.35,54.1 C39.35,54.8 39.1,55.3833333 38.6,55.85" id="Shape" fill="#347E67"></path>
            <path d="M51.95,57.2 L54.35,48.3 L54.65,48.45 C61.45,53.5166667 63.6666667,60.05 61.3,68.05 C61.1,68.7166667 60.7166667,69.2166667 60.15,69.55 L58.25,69.75 C57.5833333,69.5833333 57.0833333,69.2 56.75,68.6 C56.45,67.9666667 56.3833333,67.3166667 56.55,66.65 C58.05,61.4166667 56.5166667,58.2666667 51.95,57.2 M16.9,38.9 L14.5,47.8 C10.0333333,46.4666667 7.15,48.45 5.85,53.75 C5.68333333,54.4166667 5.3,54.9333333 4.7,55.3 L2.8,55.55 C2.13333333,55.3833333 1.61666667,55.0166667 1.25,54.45 C0.916666667,53.85 0.816666667,53.2166667 0.95,52.55 C2.91666667,44.45 8.13333333,39.9166667 16.6,38.95 L16.9,38.9" id="Shape" fill="#6FC4A9"></path>
            <path d="M64.95,32.8 C64.95,25.2 62.2666667,18.7166667 56.9,13.35 C51.4666667,7.95 44.95,5.25 37.35,5.25 C29.75,5.25 23.2666667,7.95 17.9,13.35 C12.4666667,18.7166667 9.75,25.2 9.75,32.8 C9.75,40.4333333 12.4666667,46.95 17.9,52.35 C23.2666667,57.7166667 29.75,60.4 37.35,60.4 C44.95,60.4 51.4666667,57.7166667 56.9,52.35 C62.2666667,46.95 64.95,40.4333333 64.95,32.8 M60.45,9.8 C66.7833333,16.1333333 69.95,23.8 69.95,32.8 C69.95,41.8333333 66.7833333,49.5333333 60.45,55.9 C54.05,62.2333333 46.35,65.4 37.35,65.4 C28.35,65.4 20.6833333,62.2333333 14.35,55.9 C7.95,49.5333333 4.75,41.8333333 4.75,32.8 C4.75,23.8 7.95,16.1333333 14.35,9.8 C20.6833333,3.43333333 28.35,0.25 37.35,0.25 C46.35,0.25 54.05,3.43333333 60.45,9.8" id="Shape" fill="#FFFFFF"></path>
            <path d="M48.8,31.85 C51.4,31.85 53.6166667,30.9333333 55.45,29.1 C57.2833333,27.2666667 58.2,25.05 58.2,22.45 C58.2,19.85 57.2833333,17.6333333 55.45,15.8 C53.6166667,13.9333333 51.4,13 48.8,13 C46.2,13 43.9833333,13.9333333 42.15,15.8 C40.2833333,17.6333333 39.35,19.85 39.35,22.45 C39.35,25.05 40.2833333,27.2666667 42.15,29.1 C43.9833333,30.9333333 46.2,31.85 48.8,31.85 M64.95,32.8 C64.95,40.4333333 62.2666667,46.95 56.9,52.35 C51.4666667,57.7166667 44.95,60.4 37.35,60.4 C29.75,60.4 23.2666667,57.7166667 17.9,52.35 C12.4666667,46.95 9.75,40.4333333 9.75,32.8 C9.75,25.2 12.4666667,18.7166667 17.9,13.35 C23.2666667,7.95 29.75,5.25 37.35,5.25 C44.95,5.25 51.4666667,7.95 56.9,13.35 C62.2666667,18.7166667 64.95,25.2 64.95,32.8" id="Shape" fill-opacity="0.2" fill="#FFFFFF"></path>
            <path d="M48.8,31.85 C46.2,31.85 43.9833333,30.9333333 42.15,29.1 C40.2833333,27.2666667 39.35,25.05 39.35,22.45 C39.35,19.85 40.2833333,17.6333333 42.15,15.8 C43.9833333,13.9333333 46.2,13 48.8,13 C51.4,13 53.6166667,13.9333333 55.45,15.8 C57.2833333,17.6333333 58.2,19.85 58.2,22.45 C58.2,25.05 57.2833333,27.2666667 55.45,29.1 C53.6166667,30.9333333 51.4,31.85 48.8,31.85" id="Shape" fill-opacity="0.301960784" fill="#FFFFFF"></path>
        </g>
    </g>
</svg>