<?xml version="1.0" encoding="UTF-8"?>
<svg width="66px" height="93px" viewBox="0 0 66 93" version="1.1" xmlns="http://www.w3.org/2000/svg" xmlns:xlink="http://www.w3.org/1999/xlink">
    <!-- Generator: Sketch 42 (36781) - http://www.bohemiancoding.com/sketch -->
    <title>green/front</title>
    <desc>Created with Sketch.</desc>
    <defs></defs>
    <g id="Page-1" stroke="none" stroke-width="1" fill="none" fill-rule="evenodd">
        <g id="green/front" fill-rule="nonzero">
            <path d="M25.05,69.35 C25.9833333,70.6833333 26.3,72.25 26,74.05 L22.45,92.35 L14.1,92.35 L14.1,74.05 C14.0666667,72.25 14.6833333,70.6833333 15.95,69.35 C17.25,67.9166667 18.8333333,67.2166667 20.7,67.25 C22.5,67.2166667 23.95,67.9166667 25.05,69.35 M40.15,69.35 C41.25,67.9166667 42.7,67.2166667 44.5,67.25 C46.3666667,67.2166667 47.95,67.9166667 49.25,69.35 C50.5166667,70.6833333 51.1333333,72.25 51.1,74.05 L51.1,92.35 L42.75,92.35 L39.2,74.05 C38.9,72.25 39.2166667,70.6833333 40.15,69.35" id="Shape" fill="#6FC4A9"></path>
            <path d="M47.8,14.95 C52,19.15 54.1,24.2166667 54.1,30.15 L54.1,70.55 C54.1,74.1833333 52,77.2833333 47.8,79.85 C43.6,82.3833333 38.5333333,83.65 32.6,83.65 C26.6666667,83.65 21.6,82.3833333 17.4,79.85 C13.2,77.2833333 11.1,74.1833333 11.1,70.55 L11.1,30.15 C11.1,24.2166667 13.2,19.15 17.4,14.95 C21.6,10.75 26.6666667,8.65 32.6,8.65 C38.5333333,8.65 43.6,10.75 47.8,14.95" id="Shape" fill="#6FC4A9"></path>
            <path d="M46.45,41.6 C46.45,42.9333333 45.95,44.0666667 44.95,45 C43.9833333,46 42.8333333,46.5 41.5,46.5 C40.1,46.5 38.9,46 37.9,45 C36.9666667,44.0666667 36.5,42.9333333 36.5,41.6 C36.5,40.2666667 36.9666667,39.1 37.9,38.1 C38.9,37.1333333 40.1,36.65 41.5,36.65 C42.8333333,36.65 43.9833333,37.1333333 44.95,38.1 C45.95,39.1 46.45,40.2666667 46.45,41.6 M20.2,38.1 C21.2,37.1333333 22.4,36.65 23.8,36.65 C25.1333333,36.65 26.2833333,37.1333333 27.25,38.1 C28.25,39.1 28.75,40.2666667 28.75,41.6 C28.75,42.9333333 28.25,44.0666667 27.25,45 C26.2833333,46 25.1333333,46.5 23.8,46.5 C22.4,46.5 21.2,46 20.2,45 C19.2666667,44.0666667 18.8,42.9333333 18.8,41.6 C18.8,40.2666667 19.2666667,39.1 20.2,38.1 M26.25,48.7 L27.1,48.8 L27.55,49.35 C27.75,49.95 28.15,50.4833333 28.75,50.95 C29.7833333,51.75 31.0666667,52.15 32.6,52.15 C34.0666667,52.15 35.3333333,51.75 36.4,50.95 C37,50.45 37.4333333,49.9 37.7,49.3 L38.2,48.75 C38.4666667,48.6166667 38.7333333,48.6166667 39,48.75 L39.6,49.25 L39.6,50.05 C39.2,50.95 38.55,51.7666667 37.65,52.5 C36.25,53.6 34.5666667,54.15 32.6,54.15 C30.6,54.15 28.9,53.6 27.5,52.5 C26.5,51.7666667 25.8666667,50.9166667 25.6,49.95 C25.5333333,49.6833333 25.5666667,49.4333333 25.7,49.2 C25.8,48.9333333 25.9833333,48.7666667 26.25,48.7" id="Shape" fill="#347E67"></path>
            <path d="M52.2,53.25 L52.5,53.35 C60.4,56.45 64.25,62.1833333 64.05,70.55 C64.0166667,71.25 63.7666667,71.8333333 63.3,72.3 C62.8,72.7666667 62.2,73 61.5,73 C60.8,73 60.2166667,72.75 59.75,72.25 C59.2833333,71.75 59.05,71.15 59.05,70.45 C59.15,64.9833333 56.8666667,62.3166667 52.2,62.45 L52.2,53.25 M13,53.25 L13,62.45 C8.33333333,62.3166667 6.05,64.9833333 6.15,70.45 C6.15,71.15 5.91666667,71.75 5.45,72.25 C4.98333333,72.75 4.4,73 3.7,73 C3,73 2.4,72.7666667 1.9,72.3 C1.43333333,71.8333333 1.18333333,71.25 1.15,70.55 C0.95,62.1833333 4.8,56.45 12.7,53.35 L13,53.25" id="Shape" fill="#6FC4A9"></path>
            <path d="M60.2,33.1 C60.2,25.5 57.5166667,19.0166667 52.15,13.65 C46.7166667,8.25 40.2,5.55 32.6,5.55 C25,5.55 18.5166667,8.25 13.15,13.65 C7.71666667,19.0166667 5,25.5 5,33.1 C5,40.7333333 7.71666667,47.25 13.15,52.65 C18.5166667,58.0166667 25,60.7 32.6,60.7 C40.2,60.7 46.7166667,58.0166667 52.15,52.65 C57.5166667,47.25 60.2,40.7333333 60.2,33.1 M55.7,10.1 C62.0333333,16.4333333 65.2,24.1 65.2,33.1 C65.2,42.1333333 62.0333333,49.8333333 55.7,56.2 C49.3,62.5333333 41.6,65.7 32.6,65.7 C23.6,65.7 15.9333333,62.5333333 9.6,56.2 C3.2,49.8333333 0,42.1333333 0,33.1 C0,24.1 3.2,16.4333333 9.6,10.1 C15.9333333,3.73333333 23.6,0.55 32.6,0.55 C41.6,0.55 49.3,3.73333333 55.7,10.1" id="Shape" fill="#FFFFFF"></path>
            <path d="M60.2,33.1 C60.2,40.7333333 57.5166667,47.25 52.15,52.65 C46.7166667,58.0166667 40.2,60.7 32.6,60.7 C25,60.7 18.5166667,58.0166667 13.15,52.65 C7.71666667,47.25 5,40.7333333 5,33.1 C5,25.5 7.71666667,19.0166667 13.15,13.65 C18.5166667,8.25 25,5.55 32.6,5.55 C40.2,5.55 46.7166667,8.25 52.15,13.65 C57.5166667,19.0166667 60.2,25.5 60.2,33.1 M53.45,22.75 C53.45,20.15 52.5333333,17.9333333 50.7,16.1 C48.8666667,14.2333333 46.65,13.3 44.05,13.3 C41.45,13.3 39.2333333,14.2333333 37.4,16.1 C35.5333333,17.9333333 34.6,20.15 34.6,22.75 C34.6,25.35 35.5333333,27.5666667 37.4,29.4 C39.2333333,31.2333333 41.45,32.15 44.05,32.15 C46.65,32.15 48.8666667,31.2333333 50.7,29.4 C52.5333333,27.5666667 53.45,25.35 53.45,22.75" id="Shape" fill-opacity="0.2" fill="#FFFFFF"></path>
            <path d="M53.45,22.75 C53.45,25.35 52.5333333,27.5666667 50.7,29.4 C48.8666667,31.2333333 46.65,32.15 44.05,32.15 C41.45,32.15 39.2333333,31.2333333 37.4,29.4 C35.5333333,27.5666667 34.6,25.35 34.6,22.75 C34.6,20.15 35.5333333,17.9333333 37.4,16.1 C39.2333333,14.2333333 41.45,13.3 44.05,13.3 C46.65,13.3 48.8666667,14.2333333 50.7,16.1 C52.5333333,17.9333333 53.45,20.15 53.45,22.75" id="Shape" fill-opacity="0.301960784" fill="#FFFFFF"></path>
            <path d="M35.3,79.6 C34.2,79.6 33.2666667,79.2166667 32.5,78.45 C31.7333333,77.6833333 31.35,76.75 31.35,75.65 C31.35,74.55 31.7333333,73.6166667 32.5,72.85 C33.2666667,72.0833333 34.2,71.7 35.3,71.7 C36.4,71.7 37.3333333,72.0833333 38.1,72.85 C38.8666667,73.6166667 39.25,74.55 39.25,75.65 C39.25,76.75 38.8666667,77.6833333 38.1,78.45 C37.3333333,79.2166667 36.4,79.6 35.3,79.6 M47,64.95 C47.8,64.95 48.4833333,65.2333333 49.05,65.8 C49.6166667,66.3666667 49.9,67.05 49.9,67.85 C49.9,68.65 49.6166667,69.3333333 49.05,69.9 C48.4833333,70.4666667 47.8,70.75 47,70.75 C46.2,70.75 45.5166667,70.4666667 44.95,69.9 C44.3833333,69.3333333 44.1,68.65 44.1,67.85 C44.1,67.05 44.3833333,66.3666667 44.95,65.8 C45.5166667,65.2333333 46.2,64.95 47,64.95 M44.15,72.5 C44.7166667,72.5 45.2,72.7 45.6,73.1 C46,73.5 46.2,73.9833333 46.2,74.55 C46.2,75.1166667 46,75.6 45.6,76 C45.2,76.4 44.7166667,76.6 44.15,76.6 C43.5833333,76.6 43.1,76.4 42.7,76 C42.3,75.6 42.1,75.1166667 42.1,74.55 C42.1,73.9833333 42.3,73.5 42.7,73.1 C43.1,72.7 43.5833333,72.5 44.15,72.5" id="Shape" fill-opacity="0.501960784" fill="#8BCFBA"></path>
        </g>
    </g>
</svg>