<?xml version="1.0" encoding="UTF-8"?>
<svg width="70px" height="93px" viewBox="0 0 70 93" version="1.1" xmlns="http://www.w3.org/2000/svg" xmlns:xlink="http://www.w3.org/1999/xlink">
    <!-- Generator: Sketch 42 (36781) - http://www.bohemiancoding.com/sketch -->
    <title>green/hurt</title>
    <desc>Created with Sketch.</desc>
    <defs></defs>
    <g id="Page-1" stroke="none" stroke-width="1" fill="none" fill-rule="evenodd">
        <g id="green/hurt" fill-rule="nonzero">
            <path d="M51.8,14.95 C56,19.15 58.1,24.2166667 58.1,30.15 L58.1,70.55 C58.1,74.1833333 56,77.2833333 51.8,79.85 C47.6,82.3833333 42.5333333,83.65 36.6,83.65 C30.6666667,83.65 25.6,82.3833333 21.4,79.85 C17.2,77.2833333 15.1,74.1833333 15.1,70.55 L15.1,30.15 C15.1,24.2166667 17.2,19.15 21.4,14.95 C25.6,10.75 30.6666667,8.65 36.6,8.65 C42.5333333,8.65 47.6,10.75 51.8,14.95" id="Shape" fill="#6FC4A9"></path>
            <path d="M50.5,36.65 C51.8333333,36.65 52.9833333,37.1333333 53.95,38.1 C54.95,39.1 55.45,40.2666667 55.45,41.6 C55.45,42.9333333 54.95,44.0666667 53.95,45 C52.9833333,46 51.8333333,46.5 50.5,46.5 C49.1,46.5 47.9,46 46.9,45 C45.9666667,44.0666667 45.5,42.9333333 45.5,41.6 C45.5,40.2666667 45.9666667,39.1 46.9,38.1 C47.9,37.1333333 49.1,36.65 50.5,36.65 M48.6,51.05 L48,51.55 C47.7333333,51.6833333 47.4666667,51.6833333 47.2,51.55 L46.7,51 C46.4333333,50.4 46,49.85 45.4,49.35 C44.3333333,48.55 43.0666667,48.15 41.6,48.15 C40.0666667,48.15 38.7833333,48.55 37.75,49.35 C37.15,49.8166667 36.75,50.35 36.55,50.95 L36.1,51.5 L35.25,51.6 L34.7,51.1 C34.5666667,50.8666667 34.5333333,50.6166667 34.6,50.35 C34.8666667,49.3833333 35.5,48.5333333 36.5,47.8 C37.9,46.7 39.6,46.15 41.6,46.15 C43.5666667,46.15 45.25,46.7 46.65,47.8 C47.55,48.5333333 48.2,49.35 48.6,50.25 L48.6,51.05 M37.75,41.6 C37.75,42.9333333 37.25,44.0666667 36.25,45 C35.2833333,46 34.1333333,46.5 32.8,46.5 C31.4,46.5 30.2,46 29.2,45 C28.2666667,44.0666667 27.8,42.9333333 27.8,41.6 C27.8,40.2666667 28.2666667,39.1 29.2,38.1 C30.2,37.1333333 31.4,36.65 32.8,36.65 C34.1333333,36.65 35.2833333,37.1333333 36.25,38.1 C37.25,39.1 37.75,40.2666667 37.75,41.6" id="Shape" fill="#347E67"></path>
            <path d="M3.5,63.45 C2.8,63.4833333 2.2,63.25 1.7,62.75 C1.2,62.25 0.95,61.65 0.95,60.95 C0.95,60.3166667 1.18333333,59.7333333 1.65,59.2 C7.41666667,53.1666667 14.1833333,51.8333333 21.95,55.2 L22.25,55.35 L15.75,61.85 C12.55,58.45 9.05,58.7333333 5.25,62.7 C4.75,63.2 4.16666667,63.45 3.5,63.45 M64.95,62.65 C61.1833333,58.7166667 57.7,58.45 54.5,61.85 L48,55.35 L48.25,55.15 C56.0166667,51.7833333 62.7833333,53.1166667 68.55,59.15 C69.0166667,59.6833333 69.2666667,60.2833333 69.3,60.95 C69.2666667,61.6166667 69,62.2 68.5,62.7 C68,63.2 67.4,63.4333333 66.7,63.4 C66.0333333,63.4 65.45,63.15 64.95,62.65" id="Shape" fill="#6FC4A9"></path>
            <path d="M64.2,33.1 C64.2,25.5 61.5166667,19.0166667 56.15,13.65 C50.7166667,8.25 44.2,5.55 36.6,5.55 C29,5.55 22.5166667,8.25 17.15,13.65 C11.7166667,19.0166667 9,25.5 9,33.1 C9,40.7333333 11.7166667,47.25 17.15,52.65 C22.5166667,58.0166667 29,60.7 36.6,60.7 C44.2,60.7 50.7166667,58.0166667 56.15,52.65 C61.5166667,47.25 64.2,40.7333333 64.2,33.1 M59.7,10.1 C66.0333333,16.4333333 69.2,24.1 69.2,33.1 C69.2,42.1333333 66.0333333,49.8333333 59.7,56.2 C53.3,62.5333333 45.6,65.7 36.6,65.7 C27.6,65.7 19.9333333,62.5333333 13.6,56.2 C7.2,49.8333333 4,42.1333333 4,33.1 C4,24.1 7.2,16.4333333 13.6,10.1 C19.9333333,3.73333333 27.6,0.55 36.6,0.55 C45.6,0.55 53.3,3.73333333 59.7,10.1" id="Shape" fill="#FFFFFF"></path>
            <path d="M64.2,33.1 C64.2,40.7333333 61.5166667,47.25 56.15,52.65 C50.7166667,58.0166667 44.2,60.7 36.6,60.7 C29,60.7 22.5166667,58.0166667 17.15,52.65 C11.7166667,47.25 9,40.7333333 9,33.1 C9,25.5 11.7166667,19.0166667 17.15,13.65 C22.5166667,8.25 29,5.55 36.6,5.55 C44.2,5.55 50.7166667,8.25 56.15,13.65 C61.5166667,19.0166667 64.2,25.5 64.2,33.1 M57.45,22.75 C57.45,20.15 56.5333333,17.9333333 54.7,16.1 C52.8666667,14.2333333 50.65,13.3 48.05,13.3 C45.45,13.3 43.2333333,14.2333333 41.4,16.1 C39.5333333,17.9333333 38.6,20.15 38.6,22.75 C38.6,25.35 39.5333333,27.5666667 41.4,29.4 C43.2333333,31.2333333 45.45,32.15 48.05,32.15 C50.65,32.15 52.8666667,31.2333333 54.7,29.4 C56.5333333,27.5666667 57.45,25.35 57.45,22.75" id="Shape" fill-opacity="0.2" fill="#FFFFFF"></path>
            <path d="M57.45,22.75 C57.45,25.35 56.5333333,27.5666667 54.7,29.4 C52.8666667,31.2333333 50.65,32.15 48.05,32.15 C45.45,32.15 43.2333333,31.2333333 41.4,29.4 C39.5333333,27.5666667 38.6,25.35 38.6,22.75 C38.6,20.15 39.5333333,17.9333333 41.4,16.1 C43.2333333,14.2333333 45.45,13.3 48.05,13.3 C50.65,13.3 52.8666667,14.2333333 54.7,16.1 C56.5333333,17.9333333 57.45,20.15 57.45,22.75" id="Shape" fill-opacity="0.301960784" fill="#FFFFFF"></path>
            <path d="M55.05,71.05 C61.95,77.1166667 64.85,82.6 63.75,87.5 C63.3166667,89.4 62.5166667,90.9166667 61.35,92.05 C59.8833333,92.9166667 58.6333333,92.8 57.6,91.7 C57,85.6666667 53.6166667,81.6333333 47.45,79.6 C48.7166667,75.5333333 51.25,72.6833333 55.05,71.05 M20.95,79.6 C22.2166667,75.5333333 24.75,72.6833333 28.55,71.05 C35.45,77.1166667 38.35,82.6 37.25,87.5 C36.8166667,89.4 36.0166667,90.9166667 34.85,92.05 C33.3833333,92.9166667 32.1333333,92.8 31.1,91.7 C30.5,85.6666667 27.1166667,81.6333333 20.95,79.6" id="Shape" fill="#6FC4A9"></path>
            <path d="M35.5,78.45 C34.7333333,77.6833333 34.35,76.75 34.35,75.65 C34.35,74.55 34.7333333,73.6166667 35.5,72.85 C36.2666667,72.0833333 37.2,71.7 38.3,71.7 C39.4,71.7 40.3333333,72.0833333 41.1,72.85 C41.8666667,73.6166667 42.25,74.55 42.25,75.65 C42.25,76.75 41.8666667,77.6833333 41.1,78.45 C40.3333333,79.2166667 39.4,79.6 38.3,79.6 C37.2,79.6 36.2666667,79.2166667 35.5,78.45 M52.05,65.8 C52.6166667,66.3666667 52.9,67.05 52.9,67.85 C52.9,68.65 52.6166667,69.3333333 52.05,69.9 C51.4833333,70.4666667 50.8,70.75 50,70.75 C49.2,70.75 48.5166667,70.4666667 47.95,69.9 C47.3833333,69.3333333 47.1,68.65 47.1,67.85 C47.1,67.05 47.3833333,66.3666667 47.95,65.8 C48.5166667,65.2333333 49.2,64.95 50,64.95 C50.8,64.95 51.4833333,65.2333333 52.05,65.8 M47.15,72.5 C47.7166667,72.5 48.2,72.7 48.6,73.1 C49,73.5 49.2,73.9833333 49.2,74.55 C49.2,75.1166667 49,75.6 48.6,76 C48.2,76.4 47.7166667,76.6 47.15,76.6 C46.5833333,76.6 46.1,76.4 45.7,76 C45.3,75.6 45.1,75.1166667 45.1,74.55 C45.1,73.9833333 45.3,73.5 45.7,73.1 C46.1,72.7 46.5833333,72.5 47.15,72.5" id="Shape" fill-opacity="0.501960784" fill="#8BCFBA"></path>
        </g>
    </g>
</svg>