<?xml version="1.0" encoding="UTF-8"?>
<svg width="70px" height="72px" viewBox="0 0 70 72" version="1.1" xmlns="http://www.w3.org/2000/svg" xmlns:xlink="http://www.w3.org/1999/xlink">
    <!-- Generator: Sketch 42 (36781) - http://www.bohemiancoding.com/sketch -->
    <title>pink/duck</title>
    <desc>Created with Sketch.</desc>
    <defs></defs>
    <g id="Page-1" stroke="none" stroke-width="1" fill="none" fill-rule="evenodd">
        <g id="pink/duck" fill-rule="nonzero">
            <path d="M53.05,53.7 L51.7,72 L43.35,72 L41.15,53.7 C41.0166667,51.9 41.45,50.3333333 42.45,49 C43.6833333,47.5666667 45.2,46.8666667 47,46.9 C48.8666667,46.8666667 50.3833333,47.5666667 51.55,49 C52.75,50.3333333 53.25,51.9 53.05,53.7 M22.15,49 C22.8166667,50.3333333 22.8333333,51.9 22.2,53.7 L15.15,72 L6.8,72 L10.3,53.7 C10.6,51.9 11.5166667,50.3333333 13.05,49 C14.5833333,47.5666667 16.3,46.8666667 18.2,46.9 C19.9666667,46.8666667 21.2833333,47.5666667 22.15,49" id="Shape" fill="#F19CB7"></path>
            <path d="M56.75,44.55 L52.15,61.65 C51.2166667,65.1833333 48.3833333,67.65 43.65,69.05 C38.95,70.3833333 33.7333333,70.2833333 28,68.75 C22.2666667,67.2166667 17.7,64.6833333 14.3,61.15 C10.9,57.6166667 9.66666667,54.0833333 10.6,50.55 L15.2,33.45 C16.7333333,27.7166667 20.0666667,23.35 25.2,20.35 C30.3666667,17.3833333 35.8166667,16.6666667 41.55,18.2 C47.2833333,19.7333333 51.6166667,23.0833333 54.55,28.25 C57.55,33.3833333 58.2833333,38.8166667 56.75,44.55" id="Shape" fill="#F19CB7"></path>
            <path d="M54.35,48.95 L54.65,49.1 C61.45,54.1666667 63.6666667,60.7 61.3,68.7 C61.1,69.3666667 60.7166667,69.8666667 60.15,70.2 L58.25,70.4 C57.5833333,70.2333333 57.0833333,69.85 56.75,69.25 C56.45,68.6166667 56.3833333,67.9666667 56.55,67.3 C58.05,62.0666667 56.5166667,58.9166667 51.95,57.85 L54.35,48.95 M16.9,39.55 L14.5,48.45 C10.0333333,47.1166667 7.15,49.1 5.85,54.4 C5.68333333,55.0666667 5.3,55.5833333 4.7,55.95 L2.8,56.2 C2.13333333,56.0333333 1.61666667,55.6666667 1.25,55.1 C0.916666667,54.5 0.816666667,53.8666667 0.95,53.2 C2.91666667,45.1 8.13333333,40.5666667 16.6,39.6 L16.9,39.55" id="Shape" fill="#F19CB7"></path>
            <path d="M34.7,55.6 C34.3666667,55.0333333 34.3,54.4 34.5,53.7 C34.6666667,53.0333333 35.05,52.5333333 35.65,52.2 C36.2166667,51.8333333 36.85,51.75 37.55,51.95 C38.2166667,52.1166667 38.7333333,52.5 39.1,53.1 C39.4333333,53.7 39.5166667,54.3333333 39.35,55 C39.15,55.7 38.75,56.2 38.15,56.5 C37.5833333,56.8666667 36.9666667,56.9666667 36.3,56.8 C35.6,56.6 35.0666667,56.2 34.7,55.6" id="Shape" fill="#A55B72"></path>
            <path d="M48,41.6 L47.55,42.8 C46.9166667,44.1666667 45.8666667,45.25 44.4,46.05 C42.5333333,47.15 40.6333333,47.45 38.7,46.95 C36.6,46.3833333 35,45.15 33.9,43.25 C33.1,41.85 32.8,40.4 33,38.9 L33.2,37.65 C33.7333333,35.65 34.8833333,34.0833333 36.65,32.95 C38.55,31.8833333 40.55,31.6333333 42.65,32.2 C44.5833333,32.7 46.0833333,33.8833333 47.15,35.75 C48.25,37.65 48.5333333,39.6 48,41.6 M45.5,40.85 C45.8666667,39.5166667 45.6833333,38.2166667 44.95,36.95 C44.25,35.7166667 43.2666667,34.9166667 42,34.55 C40.5666667,34.1833333 39.2166667,34.35 37.95,35.05 C36.75,35.8166667 35.9666667,36.8666667 35.6,38.2 C35.2666667,39.5333333 35.4333333,40.7666667 36.1,41.9 C36.8333333,43.1666667 37.9166667,43.9833333 39.35,44.35 C40.6166667,44.7166667 41.8666667,44.5333333 43.1,43.8 C44.3666667,43.1666667 45.1666667,42.1833333 45.5,40.85" id="Shape" fill="#FFFFFF"></path>
            <path d="M45.5,40.85 C45.1666667,42.1833333 44.3666667,43.1666667 43.1,43.8 C41.8666667,44.5333333 40.6166667,44.7166667 39.35,44.35 C37.9166667,43.9833333 36.8333333,43.1666667 36.1,41.9 C35.4333333,40.7666667 35.2666667,39.5333333 35.6,38.2 C35.9666667,36.8666667 36.75,35.8166667 37.95,35.05 C39.2166667,34.35 40.5666667,34.1833333 42,34.55 C43.2666667,34.9166667 44.25,35.7166667 44.95,36.95 C45.6833333,38.2166667 45.8666667,39.5166667 45.5,40.85" id="Shape" fill="#A55B72"></path>
            <path d="M55.45,16.45 C53.6166667,14.5833333 51.4,13.65 48.8,13.65 C46.2,13.65 43.9833333,14.5833333 42.15,16.45 C40.2833333,18.2833333 39.35,20.5 39.35,23.1 C39.35,25.7 40.2833333,27.9166667 42.15,29.75 C43.9833333,31.5833333 46.2,32.5 48.8,32.5 C51.4,32.5 53.6166667,31.5833333 55.45,29.75 C57.2833333,27.9166667 58.2,25.7 58.2,23.1 C58.2,20.5 57.2833333,18.2833333 55.45,16.45 M56.9,53 C51.4666667,58.3666667 44.95,61.05 37.35,61.05 C29.75,61.05 23.2666667,58.3666667 17.9,53 C12.4666667,47.6 9.75,41.0833333 9.75,33.45 C9.75,25.85 12.4666667,19.3666667 17.9,14 C23.2666667,8.6 29.75,5.9 37.35,5.9 C44.95,5.9 51.4666667,8.6 56.9,14 C62.2666667,19.3666667 64.95,25.85 64.95,33.45 C64.95,41.0833333 62.2666667,47.6 56.9,53" id="Shape" fill-opacity="0.2" fill="#FFFFFF"></path>
            <path d="M55.45,16.45 C57.2833333,18.2833333 58.2,20.5 58.2,23.1 C58.2,25.7 57.2833333,27.9166667 55.45,29.75 C53.6166667,31.5833333 51.4,32.5 48.8,32.5 C46.2,32.5 43.9833333,31.5833333 42.15,29.75 C40.2833333,27.9166667 39.35,25.7 39.35,23.1 C39.35,20.5 40.2833333,18.2833333 42.15,16.45 C43.9833333,14.5833333 46.2,13.65 48.8,13.65 C51.4,13.65 53.6166667,14.5833333 55.45,16.45" id="Shape" fill-opacity="0.301960784" fill="#FFFFFF"></path>
            <path d="M56.9,53 C62.2666667,47.6 64.95,41.0833333 64.95,33.45 C64.95,25.85 62.2666667,19.3666667 56.9,14 C51.4666667,8.6 44.95,5.9 37.35,5.9 C29.75,5.9 23.2666667,8.6 17.9,14 C12.4666667,19.3666667 9.75,25.85 9.75,33.45 C9.75,41.0833333 12.4666667,47.6 17.9,53 C23.2666667,58.3666667 29.75,61.05 37.35,61.05 C44.95,61.05 51.4666667,58.3666667 56.9,53 M69.95,33.45 C69.95,42.4833333 66.7833333,50.1833333 60.45,56.55 C54.05,62.8833333 46.35,66.05 37.35,66.05 C28.35,66.05 20.6833333,62.8833333 14.35,56.55 C7.95,50.1833333 4.75,42.4833333 4.75,33.45 C4.75,24.45 7.95,16.7833333 14.35,10.45 C20.6833333,4.08333333 28.35,0.9 37.35,0.9 C46.35,0.9 54.05,4.08333333 60.45,10.45 C66.7833333,16.7833333 69.95,24.45 69.95,33.45" id="Shape" fill="#FFFFFF"></path>
        </g>
    </g>
</svg>