<?xml version="1.0" encoding="UTF-8"?>
<svg width="70px" height="93px" viewBox="0 0 70 93" version="1.1" xmlns="http://www.w3.org/2000/svg" xmlns:xlink="http://www.w3.org/1999/xlink">
    <!-- Generator: Sketch 42 (36781) - http://www.bohemiancoding.com/sketch -->
    <title>pink/hurt</title>
    <desc>Created with Sketch.</desc>
    <defs></defs>
    <g id="Page-1" stroke="none" stroke-width="1" fill="none" fill-rule="evenodd">
        <g id="pink/hurt" fill-rule="nonzero">
            <path d="M21.4,25.35 C25.6,21.15 30.6666667,19.05 36.6,19.05 C42.5333333,19.05 47.6,21.15 51.8,25.35 C56,29.55 58.1,34.6166667 58.1,40.55 L58.1,70.95 C58.1,74.5833333 56,77.6833333 51.8,80.25 C47.6,82.7833333 42.5333333,84.05 36.6,84.05 C30.6666667,84.05 25.6,82.7833333 21.4,80.25 C17.2,77.6833333 15.1,74.5833333 15.1,70.95 L15.1,40.55 C15.1,34.6166667 17.2,29.55 21.4,25.35" id="Shape" fill="#F19CB7"></path>
            <path d="M3.5,63.85 C2.8,63.8833333 2.2,63.65 1.7,63.15 C1.2,62.65 0.95,62.05 0.95,61.35 C0.95,60.7166667 1.18333333,60.1333333 1.65,59.6 C7.41666667,53.5666667 14.1833333,52.2333333 21.95,55.6 L22.25,55.75 L15.75,62.25 C12.55,58.85 9.05,59.1333333 5.25,63.1 C4.75,63.6 4.16666667,63.85 3.5,63.85 M66.7,63.8 C66.0333333,63.8 65.45,63.55 64.95,63.05 C61.1833333,59.1166667 57.7,58.85 54.5,62.25 L48,55.75 L48.25,55.55 C56.0166667,52.1833333 62.7833333,53.5166667 68.55,59.55 C69.0166667,60.0833333 69.2666667,60.6833333 69.3,61.35 C69.2666667,62.0166667 69,62.6 68.5,63.1 C68,63.6 67.4,63.8333333 66.7,63.8" id="Shape" fill="#F19CB7"></path>
            <path d="M55.05,71.45 C61.95,77.5166667 64.85,83 63.75,87.9 C63.3166667,89.8 62.5166667,91.3166667 61.35,92.45 C59.8833333,93.3166667 58.6333333,93.2 57.6,92.1 C57,86.0666667 53.6166667,82.0333333 47.45,80 C48.7166667,75.9333333 51.25,73.0833333 55.05,71.45 M20.95,80 C22.2166667,75.9333333 24.75,73.0833333 28.55,71.45 C35.45,77.5166667 38.35,83 37.25,87.9 C36.8166667,89.8 36.0166667,91.3166667 34.85,92.45 C33.3833333,93.3166667 32.1333333,93.2 31.1,92.1 C30.5,86.0666667 27.1166667,82.0333333 20.95,80" id="Shape" fill="#F19CB7"></path>
            <path d="M46.7,36.95 C46.7,35.5833333 46.1833333,34.3833333 45.15,33.35 C44.15,32.35 42.9833333,31.85 41.65,31.85 C40.1833333,31.85 38.9333333,32.35 37.9,33.35 C36.9333333,34.3833333 36.45,35.5833333 36.45,36.95 C36.45,38.35 36.9333333,39.5166667 37.9,40.45 C38.9333333,41.4833333 40.1833333,42 41.65,42 C42.9833333,42 44.15,41.4833333 45.15,40.45 C46.1833333,39.5166667 46.7,38.35 46.7,36.95 M49.2,38.35 C48.9,39.85 48.15,41.1666667 46.95,42.3 C45.45,43.8333333 43.7,44.6 41.7,44.6 C39.5,44.6 37.6333333,43.8333333 36.1,42.3 C34.9666667,41.1666667 34.3,39.85 34.1,38.35 L33.95,37.05 C33.95,34.9833333 34.6666667,33.1666667 36.1,31.6 C37.6333333,30.1 39.5,29.35 41.7,29.35 C43.7,29.35 45.45,30.1 46.95,31.6 C48.5166667,33.1666667 49.3,34.9833333 49.3,37.05 L49.2,38.35" id="Shape" fill="#FFFFFF"></path>
            <path d="M46.7,36.95 C46.7,38.35 46.1833333,39.5166667 45.15,40.45 C44.15,41.4833333 42.9833333,42 41.65,42 C40.1833333,42 38.9333333,41.4833333 37.9,40.45 C36.9333333,39.5166667 36.45,38.35 36.45,36.95 C36.45,35.5833333 36.9333333,34.3833333 37.9,33.35 C38.9333333,32.35 40.1833333,31.85 41.65,31.85 C42.9833333,31.85 44.15,32.35 45.15,33.35 C46.1833333,34.3833333 46.7,35.5833333 46.7,36.95 M37.1,50.7 L36.35,51.95 L35.9,52.5 L35,52.55 C34.7333333,52.5166667 34.55,52.35 34.45,52.05 C34.2833333,51.85 34.25,51.6 34.35,51.3 C34.5833333,50.3 35.2333333,49.4333333 36.3,48.7 C37.7,47.5333333 39.4333333,46.95 41.5,46.95 C43.5333333,46.95 45.2666667,47.5333333 46.7,48.7 C47.6333333,49.4333333 48.3,50.2666667 48.7,51.2 C48.8333333,51.4666667 48.8333333,51.75 48.7,52.05 L48.1,52.55 L48.05,52.55 C47.7833333,52.6833333 47.5333333,52.6833333 47.3,52.55 L46.75,52 L46.05,50.75 L45.45,50.25 C44.35,49.4166667 43.0333333,49 41.5,49 C39.9666667,49 38.65,49.4166667 37.55,50.25 L37.1,50.7" id="Shape" fill="#A55B72"></path>
            <path d="M64.2,33.5 C64.2,25.9 61.5166667,19.4166667 56.15,14.05 C50.7166667,8.65 44.2,5.95 36.6,5.95 C29,5.95 22.5166667,8.65 17.15,14.05 C11.7166667,19.4166667 9,25.9 9,33.5 C9,41.1333333 11.7166667,47.65 17.15,53.05 C22.5166667,58.4166667 29,61.1 36.6,61.1 C44.2,61.1 50.7166667,58.4166667 56.15,53.05 C61.5166667,47.65 64.2,41.1333333 64.2,33.5 M59.7,10.5 C66.0333333,16.8333333 69.2,24.5 69.2,33.5 C69.2,42.5333333 66.0333333,50.2333333 59.7,56.6 C53.3,62.9333333 45.6,66.1 36.6,66.1 C27.6,66.1 19.9333333,62.9333333 13.6,56.6 C7.2,50.2333333 4,42.5333333 4,33.5 C4,24.5 7.2,16.8333333 13.6,10.5 C19.9333333,4.13333333 27.6,0.95 36.6,0.95 C45.6,0.95 53.3,4.13333333 59.7,10.5" id="Shape" fill="#FFFFFF"></path>
            <path d="M64.2,33.5 C64.2,41.1333333 61.5166667,47.65 56.15,53.05 C50.7166667,58.4166667 44.2,61.1 36.6,61.1 C29,61.1 22.5166667,58.4166667 17.15,53.05 C11.7166667,47.65 9,41.1333333 9,33.5 C9,25.9 11.7166667,19.4166667 17.15,14.05 C22.5166667,8.65 29,5.95 36.6,5.95 C44.2,5.95 50.7166667,8.65 56.15,14.05 C61.5166667,19.4166667 64.2,25.9 64.2,33.5 M57.45,23.15 C57.45,20.55 56.5333333,18.3333333 54.7,16.5 C52.8666667,14.6333333 50.65,13.7 48.05,13.7 C45.45,13.7 43.2333333,14.6333333 41.4,16.5 C39.5333333,18.3333333 38.6,20.55 38.6,23.15 C38.6,25.75 39.5333333,27.9666667 41.4,29.8 C43.2333333,31.6333333 45.45,32.55 48.05,32.55 C50.65,32.55 52.8666667,31.6333333 54.7,29.8 C56.5333333,27.9666667 57.45,25.75 57.45,23.15" id="Shape" fill-opacity="0.2" fill="#FFFFFF"></path>
            <path d="M57.45,23.15 C57.45,25.75 56.5333333,27.9666667 54.7,29.8 C52.8666667,31.6333333 50.65,32.55 48.05,32.55 C45.45,32.55 43.2333333,31.6333333 41.4,29.8 C39.5333333,27.9666667 38.6,25.75 38.6,23.15 C38.6,20.55 39.5333333,18.3333333 41.4,16.5 C43.2333333,14.6333333 45.45,13.7 48.05,13.7 C50.65,13.7 52.8666667,14.6333333 54.7,16.5 C56.5333333,18.3333333 57.45,20.55 57.45,23.15" id="Shape" fill-opacity="0.301960784" fill="#FFFFFF"></path>
            <path d="M50.35,71.3 C51.4166667,71.5666667 52.2166667,72.1666667 52.75,73.1 C53.3166667,74.0666667 53.45,75.0833333 53.15,76.15 C52.8833333,77.1833333 52.2833333,77.9833333 51.35,78.55 C50.3833333,79.0833333 49.3666667,79.2166667 48.3,78.95 C47.2666667,78.65 46.4666667,78.0166667 45.9,77.05 C45.3666667,76.1166667 45.2333333,75.1333333 45.5,74.1 C45.8,73.0333333 46.4333333,72.2333333 47.4,71.7 C48.3333333,71.1333333 49.3166667,71 50.35,71.3 M40.1,76.8 L41.7,76.6 C42.2333333,76.7333333 42.6333333,77.05 42.9,77.55 C43.2,78.05 43.2833333,78.5666667 43.15,79.1 C42.9833333,79.6666667 42.65,80.0833333 42.15,80.35 L40.6,80.55 C40.0666667,80.4166667 39.65,80.1 39.35,79.6 C39.0833333,79.1 39.0166667,78.5833333 39.15,78.05 C39.3166667,77.5166667 39.6333333,77.1 40.1,76.8 M37.8,72.75 C38.2,73.45 38.3166667,74.1833333 38.15,74.95 C37.9166667,75.7166667 37.45,76.3 36.75,76.7 C36.05,77.1 35.3333333,77.2 34.6,77 C33.8,76.8 33.2,76.35 32.8,75.65 C32.4,74.95 32.3166667,74.2166667 32.55,73.45 C32.7166667,72.6833333 33.15,72.1 33.85,71.7 C34.55,71.3 35.3,71.2 36.1,71.4 C36.8333333,71.6 37.4,72.05 37.8,72.75" id="Shape" fill-opacity="0.501960784" fill="#F3AFC5"></path>
        </g>
    </g>
</svg>