<?xml version="1.0" encoding="UTF-8"?>
<svg width="66px" height="92px" viewBox="0 0 66 92" version="1.1" xmlns="http://www.w3.org/2000/svg" xmlns:xlink="http://www.w3.org/1999/xlink">
    <!-- Generator: Sketch 42 (36781) - http://www.bohemiancoding.com/sketch -->
    <title>pink/lean</title>
    <desc>Created with Sketch.</desc>
    <defs></defs>
    <g id="Page-1" stroke="none" stroke-width="1" fill="none" fill-rule="evenodd">
        <g id="pink/lean" fill-rule="nonzero">
            <path d="M15.55,69 C17.0833333,67.5666667 18.8,66.8666667 20.7,66.9 C22.4666667,66.8666667 23.7833333,67.5666667 24.65,69 C25.3166667,70.3333333 25.3333333,71.9 24.7,73.7 L17.65,92 L9.3,92 L12.8,73.7 C13.1,71.9 14.0166667,70.3333333 15.55,69 M39.95,69 C41.1833333,67.5666667 42.7,66.8666667 44.5,66.9 C46.3666667,66.8666667 47.8833333,67.5666667 49.05,69 C50.25,70.3333333 50.75,71.9 50.55,73.7 L49.2,92 L40.85,92 L38.65,73.7 C38.5166667,71.9 38.95,70.3333333 39.95,69" id="Shape" fill="#F19CB7"></path>
            <path d="M17.4,24.6 C21.6,20.4 26.6666667,18.3 32.6,18.3 C38.5333333,18.3 43.6,20.4 47.8,24.6 C52,28.8 54.1,33.8666667 54.1,39.8 L54.1,70.2 C54.1,73.8333333 52,76.9333333 47.8,79.5 C43.6,82.0333333 38.5333333,83.3 32.6,83.3 C26.6666667,83.3 21.6,82.0333333 17.4,79.5 C13.2,76.9333333 11.1,73.8333333 11.1,70.2 L11.1,39.8 C11.1,33.8666667 13.2,28.8 17.4,24.6" id="Shape" fill="#F19CB7"></path>
            <path d="M37.95,28.6 C39.95,28.6 41.7,29.35 43.2,30.85 C44.7666667,32.4166667 45.55,34.2333333 45.55,36.3 L45.45,37.6 C45.15,39.1 44.4,40.4166667 43.2,41.55 C41.7,43.0833333 39.95,43.85 37.95,43.85 C35.75,43.85 33.8833333,43.0833333 32.35,41.55 C31.2166667,40.4166667 30.55,39.1 30.35,37.6 C30.25,37.1666667 30.2,36.7333333 30.2,36.3 C30.2,34.2333333 30.9166667,32.4166667 32.35,30.85 C33.8833333,29.35 35.75,28.6 37.95,28.6 M37.9,31.1 C36.4333333,31.1 35.1833333,31.6 34.15,32.6 C33.1833333,33.6333333 32.7,34.8333333 32.7,36.2 C32.7,37.6 33.1833333,38.7666667 34.15,39.7 C35.1833333,40.7333333 36.4333333,41.25 37.9,41.25 C39.2333333,41.25 40.4,40.7333333 41.4,39.7 C42.4333333,38.7666667 42.95,37.6 42.95,36.2 C42.95,34.8333333 42.4333333,33.6333333 41.4,32.6 C40.4,31.6 39.2333333,31.1 37.9,31.1" id="Shape" fill="#FFFFFF"></path>
            <path d="M37.9,31.1 C39.2333333,31.1 40.4,31.6 41.4,32.6 C42.4333333,33.6333333 42.95,34.8333333 42.95,36.2 C42.95,37.6 42.4333333,38.7666667 41.4,39.7 C40.4,40.7333333 39.2333333,41.25 37.9,41.25 C36.4333333,41.25 35.1833333,40.7333333 34.15,39.7 C33.1833333,38.7666667 32.7,37.6 32.7,36.2 C32.7,34.8333333 33.1833333,33.6333333 34.15,32.6 C35.1833333,31.6 36.4333333,31.1 37.9,31.1 M32.6,49.4 L33.35,50.65 L33.8,51.1 C34.9,51.9333333 36.2166667,52.35 37.75,52.35 C39.2833333,52.35 40.6,51.9333333 41.7,51.1 L42.3,50.6 L43,49.35 C43.1,49.0833333 43.2833333,48.9 43.55,48.8 C43.7833333,48.6666667 44.0333333,48.6666667 44.3,48.8 L44.35,48.8 C44.5833333,48.8666667 44.7833333,49.0333333 44.95,49.3 C45.0833333,49.6 45.0833333,49.8833333 44.95,50.15 C44.55,51.0833333 43.8833333,51.9166667 42.95,52.65 C41.5166667,53.8166667 39.7833333,54.4 37.75,54.4 C35.6833333,54.4 33.95,53.8166667 32.55,52.65 C31.4833333,51.9166667 30.8333333,51.05 30.6,50.05 C30.5,49.75 30.5333333,49.5 30.7,49.3 C30.8,49 30.9833333,48.8333333 31.25,48.8 L32.15,48.85 L32.6,49.4" id="Shape" fill="#A55B72"></path>
            <path d="M13,52.9 L13,62.1 C8.33333333,61.9666667 6.05,64.6333333 6.15,70.1 C6.15,70.8 5.91666667,71.4 5.45,71.9 C4.98333333,72.4 4.4,72.65 3.7,72.65 C3,72.65 2.4,72.4166667 1.9,71.95 C1.43333333,71.4833333 1.18333333,70.9 1.15,70.2 C0.95,61.8333333 4.8,56.1 12.7,53 L13,52.9 M49.2,52.9 L49.5,53 C57.4,56.1 61.25,61.8333333 61.05,70.2 C61.0166667,70.9 60.7666667,71.4833333 60.3,71.95 C59.8,72.4166667 59.2,72.65 58.5,72.65 C57.8,72.65 57.2166667,72.4 56.75,71.9 C56.2833333,71.4 56.05,70.8 56.05,70.1 C56.15,64.6333333 53.8666667,61.9666667 49.2,62.1 L49.2,52.9" id="Shape" fill="#F19CB7"></path>
            <path d="M30.35,78.85 C30.0833333,78.35 30.0166667,77.8333333 30.15,77.3 C30.3166667,76.7666667 30.6333333,76.35 31.1,76.05 L32.7,75.85 C33.2333333,75.9833333 33.6333333,76.3 33.9,76.8 C34.2,77.3 34.2833333,77.8166667 34.15,78.35 C33.9833333,78.9166667 33.65,79.3333333 33.15,79.6 L31.6,79.8 C31.0666667,79.6666667 30.65,79.35 30.35,78.85 M23.8,74.9 C23.4,74.2 23.3166667,73.4666667 23.55,72.7 C23.7166667,71.9333333 24.15,71.35 24.85,70.95 C25.55,70.55 26.3,70.45 27.1,70.65 C27.8333333,70.85 28.4,71.3 28.8,72 C29.2,72.7 29.3166667,73.4333333 29.15,74.2 C28.9166667,74.9666667 28.45,75.55 27.75,75.95 C27.05,76.35 26.3333333,76.45 25.6,76.25 C24.8,76.05 24.2,75.6 23.8,74.9 M36.5,73.35 C36.8,72.2833333 37.4333333,71.4833333 38.4,70.95 C39.3333333,70.3833333 40.3166667,70.25 41.35,70.55 C42.4166667,70.8166667 43.2166667,71.4166667 43.75,72.35 C44.3166667,73.3166667 44.45,74.3333333 44.15,75.4 C43.8833333,76.4333333 43.2833333,77.2333333 42.35,77.8 C41.3833333,78.3333333 40.3666667,78.4666667 39.3,78.2 C38.2666667,77.9 37.4666667,77.2666667 36.9,76.3 C36.3666667,75.3666667 36.2333333,74.3833333 36.5,73.35" id="Shape" fill-opacity="0.501960784" fill="#F3AFC5"></path>
            <path d="M32.6,5.2 C40.2,5.2 46.7166667,7.9 52.15,13.3 C57.5166667,18.6666667 60.2,25.15 60.2,32.75 C60.2,40.3833333 57.5166667,46.9 52.15,52.3 C46.7166667,57.6666667 40.2,60.35 32.6,60.35 C25,60.35 18.5166667,57.6666667 13.15,52.3 C7.71666667,46.9 5,40.3833333 5,32.75 C5,25.15 7.71666667,18.6666667 13.15,13.3 C18.5166667,7.9 25,5.2 32.6,5.2 M37.4,15.75 C35.5333333,17.5833333 34.6,19.8 34.6,22.4 C34.6,25 35.5333333,27.2166667 37.4,29.05 C39.2333333,30.8833333 41.45,31.8 44.05,31.8 C46.65,31.8 48.8666667,30.8833333 50.7,29.05 C52.5333333,27.2166667 53.45,25 53.45,22.4 C53.45,19.8 52.5333333,17.5833333 50.7,15.75 C48.8666667,13.8833333 46.65,12.95 44.05,12.95 C41.45,12.95 39.2333333,13.8833333 37.4,15.75" id="Shape" fill-opacity="0.2" fill="#FFFFFF"></path>
            <path d="M37.4,15.75 C39.2333333,13.8833333 41.45,12.95 44.05,12.95 C46.65,12.95 48.8666667,13.8833333 50.7,15.75 C52.5333333,17.5833333 53.45,19.8 53.45,22.4 C53.45,25 52.5333333,27.2166667 50.7,29.05 C48.8666667,30.8833333 46.65,31.8 44.05,31.8 C41.45,31.8 39.2333333,30.8833333 37.4,29.05 C35.5333333,27.2166667 34.6,25 34.6,22.4 C34.6,19.8 35.5333333,17.5833333 37.4,15.75" id="Shape" fill-opacity="0.301960784" fill="#FFFFFF"></path>
            <path d="M9.6,9.75 C15.9333333,3.38333333 23.6,0.2 32.6,0.2 C41.6,0.2 49.3,3.38333333 55.7,9.75 C62.0333333,16.0833333 65.2,23.75 65.2,32.75 C65.2,41.7833333 62.0333333,49.4833333 55.7,55.85 C49.3,62.1833333 41.6,65.35 32.6,65.35 C23.6,65.35 15.9333333,62.1833333 9.6,55.85 C3.2,49.4833333 0,41.7833333 0,32.75 C0,23.75 3.2,16.0833333 9.6,9.75 M32.6,5.2 C25,5.2 18.5166667,7.9 13.15,13.3 C7.71666667,18.6666667 5,25.15 5,32.75 C5,40.3833333 7.71666667,46.9 13.15,52.3 C18.5166667,57.6666667 25,60.35 32.6,60.35 C40.2,60.35 46.7166667,57.6666667 52.15,52.3 C57.5166667,46.9 60.2,40.3833333 60.2,32.75 C60.2,25.15 57.5166667,18.6666667 52.15,13.3 C46.7166667,7.9 40.2,5.2 32.6,5.2" id="Shape" fill="#FFFFFF"></path>
        </g>
    </g>
</svg>