<?xml version="1.0" encoding="UTF-8"?>
<svg width="68px" height="93px" viewBox="0 0 68 93" version="1.1" xmlns="http://www.w3.org/2000/svg" xmlns:xlink="http://www.w3.org/1999/xlink">
    <!-- Generator: Sketch 42 (36781) - http://www.bohemiancoding.com/sketch -->
    <title>blue/hurt</title>
    <desc>Created with Sketch.</desc>
    <defs></defs>
    <g id="Page-1" stroke="none" stroke-width="1" fill="none" fill-rule="evenodd">
        <g id="blue/hurt" fill-rule="nonzero">
            <path d="M15.1,30.15 C15.1,24.2166667 17.2,19.15 21.4,14.95 C24.8666667,11.5166667 28.9166667,9.5 33.55,8.9 L33.55,8.7 L34.6,8.65 L35.55,8.7 L35.55,8.85 C40.25,9.45 44.3333333,11.4833333 47.8,14.95 C52,19.15 54.1,24.2166667 54.1,30.15 L54.1,70.55 C54.1,74.1833333 52,77.2833333 47.8,79.85 C44.3333333,81.95 40.25,83.1833333 35.55,83.55 L35.55,83.65 L35.35,83.65 L34.6,83.65 L33.95,83.65 L33.55,83.65 L33.55,83.55 C28.9166667,83.15 24.8666667,81.9166667 21.4,79.85 C17.2,77.2833333 15.1,74.1833333 15.1,70.55 L15.1,30.15" id="Shape" fill="#8DB5E7"></path>
            <path d="M65.3,70.95 C65.2666667,71.6166667 65,72.2 64.5,72.7 C64,73.2 63.4,73.4333333 62.7,73.4 C62.0333333,73.4 61.45,73.15 60.95,72.65 C57.1833333,68.7166667 53.7,68.45 50.5,71.85 L44,65.35 L44.25,65.15 C52.0166667,61.7833333 58.7833333,63.1166667 64.55,69.15 C65.0166667,69.6833333 65.2666667,70.2833333 65.3,70.95 M22.25,65.35 L15.75,71.85 C12.55,68.45 9.05,68.7333333 5.25,72.7 C4.75,73.2 4.16666667,73.45 3.5,73.45 C2.8,73.4833333 2.2,73.25 1.7,72.75 C1.2,72.25 0.95,71.65 0.95,70.95 C0.95,70.3166667 1.18333333,69.7333333 1.65,69.2 C7.41666667,63.1666667 14.1833333,61.8333333 21.95,65.2 L22.25,65.35" id="Shape" fill="#8DB5E7"></path>
            <path d="M31.1,91.7 C30.5,85.6666667 27.1166667,81.6333333 20.95,79.6 C22.2166667,75.5333333 24.75,72.6833333 28.55,71.05 C35.45,77.1166667 38.35,82.6 37.25,87.5 C36.8166667,89.4 36.0166667,90.9166667 34.85,92.05 C33.3833333,92.9166667 32.1333333,92.8 31.1,91.7 M59.75,87.5 C59.3166667,89.4 58.5166667,90.9166667 57.35,92.05 C55.8833333,92.9166667 54.6333333,92.8 53.6,91.7 C53,85.6666667 49.6166667,81.6333333 43.45,79.6 C44.7166667,75.5333333 47.25,72.6833333 51.05,71.05 C57.95,77.1166667 60.85,82.6 59.75,87.5" id="Shape" fill="#8DB5E7"></path>
            <path d="M39.85,33.75 C40.5166667,33.75 41.0833333,34.0166667 41.55,34.55 C42.05,35.0166667 42.3,35.6 42.3,36.3 C42.3,37 42.05,37.5833333 41.55,38.05 C41.0833333,38.55 40.5166667,38.8 39.85,38.8 C39.1166667,38.8 38.5,38.55 38,38.05 C37.5333333,37.5833333 37.3,37 37.3,36.3 C37.3,35.6 37.5333333,35.0166667 38,34.55 C38.5,34.0166667 39.1166667,33.75 39.85,33.75 M34.8,40.55 C34.8,41.2833333 34.5333333,41.8666667 34,42.3 C33.5666667,42.8333333 32.9833333,43.1 32.25,43.1 C31.5833333,43.1 30.9833333,42.8333333 30.45,42.3 C29.9833333,41.8666667 29.75,41.2833333 29.75,40.55 C29.75,39.8833333 29.9833333,39.3 30.45,38.8 C30.9833333,38.3 31.5833333,38.05 32.25,38.05 C32.9833333,38.05 33.5666667,38.3 34,38.8 C34.5333333,39.3 34.8,39.8833333 34.8,40.55 M32.7,51.1 C32.5666667,50.8666667 32.5333333,50.6166667 32.6,50.35 C32.8666667,49.3833333 33.5,48.5333333 34.5,47.8 C35.9,46.7 37.6,46.15 39.6,46.15 C41.5666667,46.15 43.25,46.7 44.65,47.8 C45.55,48.5333333 46.2,49.35 46.6,50.25 L46.6,51.05 L46,51.55 C45.7333333,51.6833333 45.4666667,51.6833333 45.2,51.55 L44.7,51 C44.4333333,50.4 44,49.85 43.4,49.35 C42.3333333,48.55 41.0666667,48.15 39.6,48.15 C38.0666667,48.15 36.7833333,48.55 35.75,49.35 C35.15,49.8166667 34.75,50.35 34.55,50.95 L34.1,51.5 L33.25,51.6 L32.7,51.1 M45.5,38.8 C46,38.3 46.6166667,38.05 47.35,38.05 C47.9833333,38.05 48.55,38.3 49.05,38.8 C49.5833333,39.3 49.85,39.8833333 49.85,40.55 C49.85,41.2833333 49.5833333,41.8666667 49.05,42.3 C48.55,42.8333333 47.9833333,43.1 47.35,43.1 C46.6166667,43.1 46,42.8333333 45.5,42.3 C45,41.8666667 44.75,41.2833333 44.75,40.55 C44.75,39.8833333 45,39.3 45.5,38.8" id="Shape" fill="#4F719D"></path>
            <path d="M15.15,13.65 C20.5166667,8.25 27,5.55 34.6,5.55 C42.2,5.55 48.7166667,8.25 54.15,13.65 C59.5166667,19.0166667 62.2,25.5 62.2,33.1 C62.2,40.7333333 59.5166667,47.25 54.15,52.65 C48.7166667,58.0166667 42.2,60.7 34.6,60.7 C27,60.7 20.5166667,58.0166667 15.15,52.65 C9.71666667,47.25 7,40.7333333 7,33.1 C7,25.5 9.71666667,19.0166667 15.15,13.65 M36.6,22.75 C36.6,25.35 37.5333333,27.5666667 39.4,29.4 C41.2333333,31.2333333 43.45,32.15 46.05,32.15 C48.65,32.15 50.8666667,31.2333333 52.7,29.4 C54.5333333,27.5666667 55.45,25.35 55.45,22.75 C55.45,20.15 54.5333333,17.9333333 52.7,16.1 C50.8666667,14.2333333 48.65,13.3 46.05,13.3 C43.45,13.3 41.2333333,14.2333333 39.4,16.1 C37.5333333,17.9333333 36.6,20.15 36.6,22.75" id="Shape" fill-opacity="0.2" fill="#FFFFFF"></path>
            <path d="M36.6,22.75 C36.6,20.15 37.5333333,17.9333333 39.4,16.1 C41.2333333,14.2333333 43.45,13.3 46.05,13.3 C48.65,13.3 50.8666667,14.2333333 52.7,16.1 C54.5333333,17.9333333 55.45,20.15 55.45,22.75 C55.45,25.35 54.5333333,27.5666667 52.7,29.4 C50.8666667,31.2333333 48.65,32.15 46.05,32.15 C43.45,32.15 41.2333333,31.2333333 39.4,29.4 C37.5333333,27.5666667 36.6,25.35 36.6,22.75" id="Shape" fill-opacity="0.301960784" fill="#FFFFFF"></path>
            <path d="M2,33.1 C2,24.1 5.2,16.4333333 11.6,10.1 C17.9333333,3.73333333 25.6,0.55 34.6,0.55 C43.6,0.55 51.3,3.73333333 57.7,10.1 C64.0333333,16.4333333 67.2,24.1 67.2,33.1 C67.2,42.1333333 64.0333333,49.8333333 57.7,56.2 C51.3,62.5333333 43.6,65.7 34.6,65.7 C25.6,65.7 17.9333333,62.5333333 11.6,56.2 C5.2,49.8333333 2,42.1333333 2,33.1 M15.15,13.65 C9.71666667,19.0166667 7,25.5 7,33.1 C7,40.7333333 9.71666667,47.25 15.15,52.65 C20.5166667,58.0166667 27,60.7 34.6,60.7 C42.2,60.7 48.7166667,58.0166667 54.15,52.65 C59.5166667,47.25 62.2,40.7333333 62.2,33.1 C62.2,25.5 59.5166667,19.0166667 54.15,13.65 C48.7166667,8.25 42.2,5.55 34.6,5.55 C27,5.55 20.5166667,8.25 15.15,13.65" id="Shape" fill="#FFFFFF"></path>
            <path d="M29.35,78.6 C28.5833333,77.8333333 28.2,76.9 28.2,75.8 C28.2,74.7 28.5833333,73.7666667 29.35,73 C30.1166667,72.2333333 31.05,71.85 32.15,71.85 C33.25,71.85 34.1833333,72.2333333 34.95,73 C35.7166667,73.7666667 36.1,74.7 36.1,75.8 C36.1,76.9 35.7166667,77.8333333 34.95,78.6 C34.1833333,79.3666667 33.25,79.75 32.15,79.75 C31.05,79.75 30.1166667,79.3666667 29.35,78.6 M24.75,76.15 C24.35,76.55 23.8666667,76.75 23.3,76.75 C22.7333333,76.75 22.25,76.55 21.85,76.15 C21.45,75.75 21.25,75.2666667 21.25,74.7 C21.25,74.1333333 21.45,73.65 21.85,73.25 C22.25,72.85 22.7333333,72.65 23.3,72.65 C23.8666667,72.65 24.35,72.85 24.75,73.25 C25.15,73.65 25.35,74.1333333 25.35,74.7 C25.35,75.2666667 25.15,75.75 24.75,76.15 M23.35,68 C23.35,68.8 23.0666667,69.4833333 22.5,70.05 C21.9333333,70.6166667 21.25,70.9 20.45,70.9 C19.65,70.9 18.9666667,70.6166667 18.4,70.05 C17.8333333,69.4833333 17.55,68.8 17.55,68 C17.55,67.2 17.8333333,66.5166667 18.4,65.95 C18.9666667,65.3833333 19.65,65.1 20.45,65.1 C21.25,65.1 21.9333333,65.3833333 22.5,65.95 C23.0666667,66.5166667 23.35,67.2 23.35,68" id="Shape" fill-opacity="0.501960784" fill="#A3C3EB"></path>
        </g>
    </g>
</svg>