<?xml version="1.0" encoding="UTF-8"?>
<svg width="68px" height="72px" viewBox="0 0 68 72" version="1.1" xmlns="http://www.w3.org/2000/svg" xmlns:xlink="http://www.w3.org/1999/xlink">
    <!-- Generator: Sketch 42 (36781) - http://www.bohemiancoding.com/sketch -->
    <title>blue/duck</title>
    <desc>Created with Sketch.</desc>
    <defs></defs>
    <g id="Page-1" stroke="none" stroke-width="1" fill="none" fill-rule="evenodd">
        <g id="blue/duck" fill-rule="nonzero">
            <path d="M49.05,53.05 L47.7,71.35 L39.35,71.35 L37.15,53.05 C37.0166667,51.25 37.45,49.6833333 38.45,48.35 C39.6833333,46.9166667 41.2,46.2166667 43,46.25 C44.8666667,46.2166667 46.3833333,46.9166667 47.55,48.35 C48.75,49.6833333 49.25,51.25 49.05,53.05 M22.15,48.35 C22.8166667,49.6833333 22.8333333,51.25 22.2,53.05 L15.15,71.35 L6.8,71.35 L10.3,53.05 C10.6,51.25 11.5166667,49.6833333 13.05,48.35 C14.5833333,46.9166667 16.3,46.2166667 18.2,46.25 C19.9666667,46.2166667 21.2833333,46.9166667 22.15,48.35" id="Shape" fill="#8DB5E7"></path>
            <path d="M56.75,36.5 L50.15,61 C49.2166667,64.5333333 46.3833333,67 41.65,68.4 C36.95,69.7333333 31.7333333,69.6333333 26,68.1 C20.2666667,66.5666667 15.7,64.0333333 12.3,60.5 C8.9,56.9666667 7.66666667,53.4333333 8.6,49.9 L15.2,25.4 C16.7333333,19.6666667 20.0666667,15.3 25.2,12.3 C30.3666667,9.33333333 35.8166667,8.61666667 41.55,10.15 C47.2833333,11.6833333 51.6166667,15.0333333 54.55,20.2 C57.55,25.3333333 58.2833333,30.7666667 56.75,36.5" id="Shape" fill="#8DB5E7"></path>
            <path d="M50.35,50.3 L50.65,50.45 C57.45,55.5166667 59.6666667,62.05 57.3,70.05 C57.1,70.7166667 56.7166667,71.2166667 56.15,71.55 L54.25,71.75 C53.5833333,71.5833333 53.0833333,71.2 52.75,70.6 C52.45,69.9666667 52.3833333,69.3166667 52.55,68.65 C54.05,63.4166667 52.5166667,60.2666667 47.95,59.2 L50.35,50.3 M5.85,55.75 C5.68333333,56.4166667 5.3,56.9333333 4.7,57.3 L2.8,57.55 C2.13333333,57.3833333 1.61666667,57.0166667 1.25,56.45 C0.916666667,55.85 0.816666667,55.2166667 0.95,54.55 C2.91666667,46.45 8.13333333,41.9166667 16.6,40.95 L16.9,40.9 L14.5,49.8 C10.0333333,48.4666667 7.15,50.45 5.85,55.75" id="Shape" fill="#8DB5E7"></path>
            <path d="M45.75,49.75 C45.15,50.15 44.5333333,50.2666667 43.9,50.1 C43.2,49.9 42.6833333,49.4666667 42.35,48.8 C41.9833333,48.3 41.8833333,47.7 42.05,47 C42.2166667,46.3333333 42.6166667,45.8166667 43.25,45.45 C43.85,45.0833333 44.5,45 45.2,45.2 C45.8333333,45.3666667 46.3166667,45.7666667 46.65,46.4 C47.05,47 47.1666667,47.6333333 47,48.3 C46.8333333,49 46.4166667,49.4833333 45.75,49.75 M35.95,40.95 C36.15,40.25 36.5333333,39.75 37.1,39.45 C37.7,39.0166667 38.3666667,38.9 39.1,39.1 C39.7333333,39.2666667 40.2,39.6833333 40.5,40.35 C40.9,40.9166667 41,41.55 40.8,42.25 C40.6333333,42.9166667 40.2333333,43.4 39.6,43.7 C39.0333333,44.0666667 38.4333333,44.1666667 37.8,44 C37.0666667,43.8 36.5333333,43.4 36.2,42.8 C35.8666667,42.2333333 35.7833333,41.6166667 35.95,40.95 M32.45,44.4 C32.2833333,45.1 31.8833333,45.5833333 31.25,45.85 C30.6833333,46.2833333 30.05,46.4 29.35,46.2 C28.6833333,46.0333333 28.1666667,45.6166667 27.8,44.95 C27.4666667,44.4166667 27.3833333,43.8 27.55,43.1 C27.7166667,42.4333333 28.1,41.9333333 28.7,41.6 C29.3333333,41.2333333 29.9833333,41.1333333 30.65,41.3 C31.35,41.5 31.85,41.9 32.15,42.5 C32.5166667,43.1 32.6166667,43.7333333 32.45,44.4 M34.1,56.85 C33.4,56.65 32.8833333,56.25 32.55,55.65 C32.2166667,55.0833333 32.1333333,54.45 32.3,53.75 C32.5,53.0833333 32.8833333,52.5833333 33.45,52.25 C34.05,51.8833333 34.7,51.8 35.4,52 C36.0666667,52.1666667 36.5666667,52.55 36.9,53.15 C37.2666667,53.75 37.35,54.3833333 37.15,55.05 C36.9833333,55.75 36.6,56.25 36,56.55 C35.4,56.9166667 34.7666667,57.0166667 34.1,56.85" id="Shape" fill="#4F719D"></path>
            <path d="M62.95,32.8 C62.95,25.2 60.2666667,18.7166667 54.9,13.35 C49.4666667,7.95 42.95,5.25 35.35,5.25 C27.75,5.25 21.2666667,7.95 15.9,13.35 C10.4666667,18.7166667 7.75,25.2 7.75,32.8 C7.75,40.4333333 10.4666667,46.95 15.9,52.35 C21.2666667,57.7166667 27.75,60.4 35.35,60.4 C42.95,60.4 49.4666667,57.7166667 54.9,52.35 C60.2666667,46.95 62.95,40.4333333 62.95,32.8 M58.45,9.8 C64.7833333,16.1333333 67.95,23.8 67.95,32.8 C67.95,41.8333333 64.7833333,49.5333333 58.45,55.9 C52.05,62.2333333 44.35,65.4 35.35,65.4 C26.35,65.4 18.6833333,62.2333333 12.35,55.9 C5.95,49.5333333 2.75,41.8333333 2.75,32.8 C2.75,23.8 5.95,16.1333333 12.35,9.8 C18.6833333,3.43333333 26.35,0.25 35.35,0.25 C44.35,0.25 52.05,3.43333333 58.45,9.8" id="Shape" fill="#FFFFFF"></path>
            <path d="M46.8,31.85 C49.4,31.85 51.6166667,30.9333333 53.45,29.1 C55.2833333,27.2666667 56.2,25.05 56.2,22.45 C56.2,19.85 55.2833333,17.6333333 53.45,15.8 C51.6166667,13.9333333 49.4,13 46.8,13 C44.2,13 41.9833333,13.9333333 40.15,15.8 C38.2833333,17.6333333 37.35,19.85 37.35,22.45 C37.35,25.05 38.2833333,27.2666667 40.15,29.1 C41.9833333,30.9333333 44.2,31.85 46.8,31.85 M62.95,32.8 C62.95,40.4333333 60.2666667,46.95 54.9,52.35 C49.4666667,57.7166667 42.95,60.4 35.35,60.4 C27.75,60.4 21.2666667,57.7166667 15.9,52.35 C10.4666667,46.95 7.75,40.4333333 7.75,32.8 C7.75,25.2 10.4666667,18.7166667 15.9,13.35 C21.2666667,7.95 27.75,5.25 35.35,5.25 C42.95,5.25 49.4666667,7.95 54.9,13.35 C60.2666667,18.7166667 62.95,25.2 62.95,32.8" id="Shape" fill-opacity="0.2" fill="#FFFFFF"></path>
            <path d="M46.8,31.85 C44.2,31.85 41.9833333,30.9333333 40.15,29.1 C38.2833333,27.2666667 37.35,25.05 37.35,22.45 C37.35,19.85 38.2833333,17.6333333 40.15,15.8 C41.9833333,13.9333333 44.2,13 46.8,13 C49.4,13 51.6166667,13.9333333 53.45,15.8 C55.2833333,17.6333333 56.2,19.85 56.2,22.45 C56.2,25.05 55.2833333,27.2666667 53.45,29.1 C51.6166667,30.9333333 49.4,31.85 46.8,31.85" id="Shape" fill-opacity="0.301960784" fill="#FFFFFF"></path>
        </g>
    </g>
</svg>