<?xml version="1.0" encoding="UTF-8"?>
<svg width="66px" height="93px" viewBox="0 0 66 93" version="1.1" xmlns="http://www.w3.org/2000/svg" xmlns:xlink="http://www.w3.org/1999/xlink">
    <!-- Generator: Sketch 42 (36781) - http://www.bohemiancoding.com/sketch -->
    <title>blue/front</title>
    <desc>Created with Sketch.</desc>
    <defs></defs>
    <g id="Page-1" stroke="none" stroke-width="1" fill="none" fill-rule="evenodd">
        <g id="blue/front" fill-rule="nonzero">
            <path d="M49.1,74.05 L49.1,92.35 L40.75,92.35 L37.2,74.05 C36.9,72.25 37.2166667,70.6833333 38.15,69.35 C39.25,67.9166667 40.7,67.2166667 42.5,67.25 C44.3666667,67.2166667 45.95,67.9166667 47.25,69.35 C48.5166667,70.6833333 49.1333333,72.25 49.1,74.05 M27.05,69.35 C27.9833333,70.6833333 28.3,72.25 28,74.05 L24.45,92.35 L16.1,92.35 L16.1,74.05 C16.0666667,72.25 16.6833333,70.6833333 17.95,69.35 C19.25,67.9166667 20.8333333,67.2166667 22.7,67.25 C24.5,67.2166667 25.95,67.9166667 27.05,69.35" id="Shape" fill="#8DB5E7"></path>
            <path d="M31.6,8.85 L31.6,8.7 L32.6,8.65 L33.6,8.7 L33.6,8.85 C38.2666667,9.45 42.3333333,11.4833333 45.8,14.95 C50,19.15 52.1,24.2166667 52.1,30.15 L52.1,70.55 C52.1,74.1833333 50,77.2833333 45.8,79.85 C42.3333333,81.95 38.2666667,83.1833333 33.6,83.55 L33.6,83.65 L32.6,83.65 L31.6,83.65 L31.6,83.55 C26.9666667,83.1833333 22.9,81.95 19.4,79.85 C15.2,77.2833333 13.1,74.1833333 13.1,70.55 L13.1,30.15 C13.1,24.2166667 15.2,19.15 19.4,14.95 C22.9,11.45 26.9666667,9.41666667 31.6,8.85" id="Shape" fill="#8DB5E7"></path>
            <path d="M50.2,63.25 L50.5,63.35 C58.4,66.45 62.25,72.1833333 62.05,80.55 C62.0166667,81.25 61.7666667,81.8333333 61.3,82.3 C60.8,82.7666667 60.2,83 59.5,83 C58.8,83 58.2166667,82.75 57.75,82.25 C57.2833333,81.75 57.05,81.15 57.05,80.45 C57.15,74.9833333 54.8666667,72.3166667 50.2,72.45 L50.2,63.25 M15,63.25 L15,72.45 C10.3333333,72.3166667 8.05,74.9833333 8.15,80.45 C8.15,81.15 7.91666667,81.75 7.45,82.25 C6.98333333,82.75 6.4,83 5.7,83 C5,83 4.4,82.7666667 3.9,82.3 C3.43333333,81.8333333 3.18333333,81.25 3.15,80.55 C2.95,72.1833333 6.8,66.45 14.7,63.35 L15,63.25" id="Shape" fill="#8DB5E7"></path>
            <path d="M35.3,38.8 C35.3,39.5 35.05,40.0833333 34.55,40.55 C34.0833333,41.05 33.5166667,41.3 32.85,41.3 C32.1166667,41.3 31.5,41.05 31,40.55 C30.5333333,40.0833333 30.3,39.5 30.3,38.8 C30.3,38.1 30.5333333,37.5166667 31,37.05 C31.5,36.5166667 32.1166667,36.25 32.85,36.25 C33.5166667,36.25 34.0833333,36.5166667 34.55,37.05 C35.05,37.5166667 35.3,38.1 35.3,38.8 M40.35,40.55 C40.9833333,40.55 41.55,40.8 42.05,41.3 C42.5833333,41.8 42.85,42.3833333 42.85,43.05 C42.85,43.7833333 42.5833333,44.3666667 42.05,44.8 C41.55,45.3333333 40.9833333,45.6 40.35,45.6 C39.6166667,45.6 39,45.3333333 38.5,44.8 C38,44.3666667 37.75,43.7833333 37.75,43.05 C37.75,42.3833333 38,41.8 38.5,41.3 C39,40.8 39.6166667,40.55 40.35,40.55 M25.25,40.55 C25.9833333,40.55 26.5666667,40.8 27,41.3 C27.5333333,41.8 27.8,42.3833333 27.8,43.05 C27.8,43.7833333 27.5333333,44.3666667 27,44.8 C26.5666667,45.3333333 25.9833333,45.6 25.25,45.6 C24.5833333,45.6 23.9833333,45.3333333 23.45,44.8 C22.9833333,44.3666667 22.75,43.7833333 22.75,43.05 C22.75,42.3833333 22.9833333,41.8 23.45,41.3 C23.9833333,40.8 24.5833333,40.55 25.25,40.55 M28.55,52.8 L28.8,52.05 C29.0333333,51.85 29.3,51.75 29.6,51.75 L35.85,51.75 C36.15,51.75 36.4,51.85 36.6,52.05 L36.95,52.8 L36.6,53.55 C36.4,53.7833333 36.15,53.9 35.85,53.9 L29.6,53.9 C29.3,53.9 29.0333333,53.7833333 28.8,53.55 L28.55,52.8" id="Shape" fill="#4F719D"></path>
            <path d="M13.15,13.65 C18.5166667,8.25 25,5.55 32.6,5.55 C40.2,5.55 46.7166667,8.25 52.15,13.65 C57.5166667,19.0166667 60.2,25.5 60.2,33.1 C60.2,40.7333333 57.5166667,47.25 52.15,52.65 C46.7166667,58.0166667 40.2,60.7 32.6,60.7 C25,60.7 18.5166667,58.0166667 13.15,52.65 C7.71666667,47.25 5,40.7333333 5,33.1 C5,25.5 7.71666667,19.0166667 13.15,13.65 M34.6,22.75 C34.6,25.35 35.5333333,27.5666667 37.4,29.4 C39.2333333,31.2333333 41.45,32.15 44.05,32.15 C46.65,32.15 48.8666667,31.2333333 50.7,29.4 C52.5333333,27.5666667 53.45,25.35 53.45,22.75 C53.45,20.15 52.5333333,17.9333333 50.7,16.1 C48.8666667,14.2333333 46.65,13.3 44.05,13.3 C41.45,13.3 39.2333333,14.2333333 37.4,16.1 C35.5333333,17.9333333 34.6,20.15 34.6,22.75" id="Shape" fill-opacity="0.2" fill="#FFFFFF"></path>
            <path d="M34.6,22.75 C34.6,20.15 35.5333333,17.9333333 37.4,16.1 C39.2333333,14.2333333 41.45,13.3 44.05,13.3 C46.65,13.3 48.8666667,14.2333333 50.7,16.1 C52.5333333,17.9333333 53.45,20.15 53.45,22.75 C53.45,25.35 52.5333333,27.5666667 50.7,29.4 C48.8666667,31.2333333 46.65,32.15 44.05,32.15 C41.45,32.15 39.2333333,31.2333333 37.4,29.4 C35.5333333,27.5666667 34.6,25.35 34.6,22.75" id="Shape" fill-opacity="0.301960784" fill="#FFFFFF"></path>
            <path d="M13.15,13.65 C7.71666667,19.0166667 5,25.5 5,33.1 C5,40.7333333 7.71666667,47.25 13.15,52.65 C18.5166667,58.0166667 25,60.7 32.6,60.7 C40.2,60.7 46.7166667,58.0166667 52.15,52.65 C57.5166667,47.25 60.2,40.7333333 60.2,33.1 C60.2,25.5 57.5166667,19.0166667 52.15,13.65 C46.7166667,8.25 40.2,5.55 32.6,5.55 C25,5.55 18.5166667,8.25 13.15,13.65 M9.6,10.1 C15.9333333,3.73333333 23.6,0.55 32.6,0.55 C41.6,0.55 49.3,3.73333333 55.7,10.1 C62.0333333,16.4333333 65.2,24.1 65.2,33.1 C65.2,42.1333333 62.0333333,49.8333333 55.7,56.2 C49.3,62.5333333 41.6,65.7 32.6,65.7 C23.6,65.7 15.9333333,62.5333333 9.6,56.2 C3.2,49.8333333 0,42.1333333 0,33.1 C0,24.1 3.2,16.4333333 9.6,10.1" id="Shape" fill="#FFFFFF"></path>
            <path d="M16.4,65.95 C16.9666667,65.3833333 17.65,65.1 18.45,65.1 C19.25,65.1 19.9333333,65.3833333 20.5,65.95 C21.0666667,66.5166667 21.35,67.2 21.35,68 C21.35,68.8 21.0666667,69.4833333 20.5,70.05 C19.9333333,70.6166667 19.25,70.9 18.45,70.9 C17.65,70.9 16.9666667,70.6166667 16.4,70.05 C15.8333333,69.4833333 15.55,68.8 15.55,68 C15.55,67.2 15.8333333,66.5166667 16.4,65.95 M27.35,78.6 C26.5833333,77.8333333 26.2,76.9 26.2,75.8 C26.2,74.7 26.5833333,73.7666667 27.35,73 C28.1166667,72.2333333 29.05,71.85 30.15,71.85 C31.25,71.85 32.1833333,72.2333333 32.95,73 C33.7166667,73.7666667 34.1,74.7 34.1,75.8 C34.1,76.9 33.7166667,77.8333333 32.95,78.6 C32.1833333,79.3666667 31.25,79.75 30.15,79.75 C29.05,79.75 28.1166667,79.3666667 27.35,78.6 M22.75,76.15 C22.35,76.55 21.8666667,76.75 21.3,76.75 C20.7333333,76.75 20.25,76.55 19.85,76.15 C19.45,75.75 19.25,75.2666667 19.25,74.7 C19.25,74.1333333 19.45,73.65 19.85,73.25 C20.25,72.85 20.7333333,72.65 21.3,72.65 C21.8666667,72.65 22.35,72.85 22.75,73.25 C23.15,73.65 23.35,74.1333333 23.35,74.7 C23.35,75.2666667 23.15,75.75 22.75,76.15" id="Shape" fill-opacity="0.501960784" fill="#A3C3EB"></path>
        </g>
    </g>
</svg>