<?xml version="1.0" encoding="UTF-8"?>
<svg width="66px" height="93px" viewBox="0 0 66 93" version="1.1" xmlns="http://www.w3.org/2000/svg" xmlns:xlink="http://www.w3.org/1999/xlink">
    <!-- Generator: Sketch 42 (36781) - http://www.bohemiancoding.com/sketch -->
    <title>blue/lean</title>
    <desc>Created with Sketch.</desc>
    <defs></defs>
    <g id="Page-1" stroke="none" stroke-width="1" fill="none" fill-rule="evenodd">
        <g id="blue/lean" fill-rule="nonzero">
            <path d="M26.65,69.35 C27.3166667,70.6833333 27.3333333,72.25 26.7,74.05 L19.65,92.35 L11.3,92.35 L14.8,74.05 C15.1,72.25 16.0166667,70.6833333 17.55,69.35 C19.0833333,67.9166667 20.8,67.2166667 22.7,67.25 C24.4666667,67.2166667 25.7833333,67.9166667 26.65,69.35 M37.95,69.35 C39.1833333,67.9166667 40.7,67.2166667 42.5,67.25 C44.3666667,67.2166667 45.8833333,67.9166667 47.05,69.35 C48.25,70.6833333 48.75,72.25 48.55,74.05 L47.2,92.35 L38.85,92.35 L36.65,74.05 C36.5166667,72.25 36.95,70.6833333 37.95,69.35" id="Shape" fill="#8DB5E7"></path>
            <path d="M52.1,30.15 L52.1,70.55 C52.1,74.1833333 50,77.2833333 45.8,79.85 C42.3,81.95 38.2166667,83.1833333 33.55,83.55 L33.55,83.65 L32.6,83.65 L31.85,83.65 L31.55,83.65 L30.55,83.6 L30.55,83.45 C26.3166667,82.9833333 22.6,81.7833333 19.4,79.85 C15.2,77.2833333 13.1,74.1833333 13.1,70.55 L13.1,30.15 C13.1,24.2166667 15.2,19.15 19.4,14.95 C22.6,11.75 26.3166667,9.76666667 30.55,9 L30.55,8.75 L31.55,8.7 L32.6,8.65 L33.55,8.7 L33.55,8.85 C38.2166667,9.41666667 42.3,11.45 45.8,14.95 C50,19.15 52.1,24.2166667 52.1,30.15" id="Shape" fill="#8DB5E7"></path>
            <path d="M7.45,82.25 C6.98333333,82.75 6.4,83 5.7,83 C5,83 4.4,82.7666667 3.9,82.3 C3.43333333,81.8333333 3.18333333,81.25 3.15,80.55 C2.95,72.1833333 6.8,66.45 14.7,63.35 L15,63.25 L15,72.45 C10.3333333,72.3166667 8.05,74.9833333 8.15,80.45 C8.15,81.15 7.91666667,81.75 7.45,82.25 M47.2,63.25 L47.5,63.35 C55.4,66.45 59.25,72.1833333 59.05,80.55 C59.0166667,81.25 58.7666667,81.8333333 58.3,82.3 C57.8,82.7666667 57.2,83 56.5,83 C55.8,83 55.2166667,82.75 54.75,82.25 C54.2833333,81.75 54.05,81.15 54.05,80.45 C54.15,74.9833333 51.8666667,72.3166667 47.2,72.45 L47.2,63.25" id="Shape" fill="#8DB5E7"></path>
            <path d="M43.5,44.8 C43,44.3666667 42.75,43.7833333 42.75,43.05 C42.75,42.3833333 43,41.8 43.5,41.3 C44,40.8 44.6166667,40.55 45.35,40.55 C45.9833333,40.55 46.55,40.8 47.05,41.3 C47.5833333,41.8 47.85,42.3833333 47.85,43.05 C47.85,43.7833333 47.5833333,44.3666667 47.05,44.8 C46.55,45.3333333 45.9833333,45.6 45.35,45.6 C44.6166667,45.6 44,45.3333333 43.5,44.8 M35.3,38.8 C35.3,38.1 35.5333333,37.5166667 36,37.05 C36.5,36.5166667 37.1166667,36.25 37.85,36.25 C38.5166667,36.25 39.0833333,36.5166667 39.55,37.05 C40.05,37.5166667 40.3,38.1 40.3,38.8 C40.3,39.5 40.05,40.0833333 39.55,40.55 C39.0833333,41.05 38.5166667,41.3 37.85,41.3 C37.1166667,41.3 36.5,41.05 36,40.55 C35.5333333,40.0833333 35.3,39.5 35.3,38.8 M30.25,40.55 C30.9833333,40.55 31.5666667,40.8 32,41.3 C32.5333333,41.8 32.8,42.3833333 32.8,43.05 C32.8,43.7833333 32.5333333,44.3666667 32,44.8 C31.5666667,45.3333333 30.9833333,45.6 30.25,45.6 C29.5833333,45.6 28.9833333,45.3333333 28.45,44.8 C27.9833333,44.3666667 27.75,43.7833333 27.75,43.05 C27.75,42.3833333 27.9833333,41.8 28.45,41.3 C28.9833333,40.8 29.5833333,40.55 30.25,40.55 M33.8,52.05 C34.0333333,51.85 34.3,51.75 34.6,51.75 L40.85,51.75 C41.15,51.75 41.4,51.85 41.6,52.05 L41.95,52.8 L41.6,53.55 C41.4,53.7833333 41.15,53.9 40.85,53.9 L34.6,53.9 C34.3,53.9 34.0333333,53.7833333 33.8,53.55 C33.6333333,53.35 33.55,53.1 33.55,52.8 C33.55,52.5333333 33.6333333,52.2833333 33.8,52.05" id="Shape" fill="#4F719D"></path>
            <path d="M60.2,33.1 C60.2,25.5 57.5166667,19.0166667 52.15,13.65 C46.7166667,8.25 40.2,5.55 32.6,5.55 C25,5.55 18.5166667,8.25 13.15,13.65 C7.71666667,19.0166667 5,25.5 5,33.1 C5,40.7333333 7.71666667,47.25 13.15,52.65 C18.5166667,58.0166667 25,60.7 32.6,60.7 C40.2,60.7 46.7166667,58.0166667 52.15,52.65 C57.5166667,47.25 60.2,40.7333333 60.2,33.1 M55.7,10.1 C62.0333333,16.4333333 65.2,24.1 65.2,33.1 C65.2,42.1333333 62.0333333,49.8333333 55.7,56.2 C49.3,62.5333333 41.6,65.7 32.6,65.7 C23.6,65.7 15.9333333,62.5333333 9.6,56.2 C3.2,49.8333333 0,42.1333333 0,33.1 C0,24.1 3.2,16.4333333 9.6,10.1 C15.9333333,3.73333333 23.6,0.55 32.6,0.55 C41.6,0.55 49.3,3.73333333 55.7,10.1" id="Shape" fill="#FFFFFF"></path>
            <path d="M60.2,33.1 C60.2,40.7333333 57.5166667,47.25 52.15,52.65 C46.7166667,58.0166667 40.2,60.7 32.6,60.7 C25,60.7 18.5166667,58.0166667 13.15,52.65 C7.71666667,47.25 5,40.7333333 5,33.1 C5,25.5 7.71666667,19.0166667 13.15,13.65 C18.5166667,8.25 25,5.55 32.6,5.55 C40.2,5.55 46.7166667,8.25 52.15,13.65 C57.5166667,19.0166667 60.2,25.5 60.2,33.1 M53.45,22.75 C53.45,20.15 52.5333333,17.9333333 50.7,16.1 C48.8666667,14.2333333 46.65,13.3 44.05,13.3 C41.45,13.3 39.2333333,14.2333333 37.4,16.1 C35.5333333,17.9333333 34.6,20.15 34.6,22.75 C34.6,25.35 35.5333333,27.5666667 37.4,29.4 C39.2333333,31.2333333 41.45,32.15 44.05,32.15 C46.65,32.15 48.8666667,31.2333333 50.7,29.4 C52.5333333,27.5666667 53.45,25.35 53.45,22.75" id="Shape" fill-opacity="0.2" fill="#FFFFFF"></path>
            <path d="M53.45,22.75 C53.45,25.35 52.5333333,27.5666667 50.7,29.4 C48.8666667,31.2333333 46.65,32.15 44.05,32.15 C41.45,32.15 39.2333333,31.2333333 37.4,29.4 C35.5333333,27.5666667 34.6,25.35 34.6,22.75 C34.6,20.15 35.5333333,17.9333333 37.4,16.1 C39.2333333,14.2333333 41.45,13.3 44.05,13.3 C46.65,13.3 48.8666667,14.2333333 50.7,16.1 C52.5333333,17.9333333 53.45,20.15 53.45,22.75" id="Shape" fill-opacity="0.301960784" fill="#FFFFFF"></path>
            <path d="M18.45,65.1 C19.25,65.1 19.9333333,65.3833333 20.5,65.95 C21.0666667,66.5166667 21.35,67.2 21.35,68 C21.35,68.8 21.0666667,69.4833333 20.5,70.05 C19.9333333,70.6166667 19.25,70.9 18.45,70.9 C17.65,70.9 16.9666667,70.6166667 16.4,70.05 C15.8333333,69.4833333 15.55,68.8 15.55,68 C15.55,67.2 15.8333333,66.5166667 16.4,65.95 C16.9666667,65.3833333 17.65,65.1 18.45,65.1 M23.35,74.7 C23.35,75.2666667 23.15,75.75 22.75,76.15 C22.35,76.55 21.8666667,76.75 21.3,76.75 C20.7333333,76.75 20.25,76.55 19.85,76.15 C19.45,75.75 19.25,75.2666667 19.25,74.7 C19.25,74.1333333 19.45,73.65 19.85,73.25 C20.25,72.85 20.7333333,72.65 21.3,72.65 C21.8666667,72.65 22.35,72.85 22.75,73.25 C23.15,73.65 23.35,74.1333333 23.35,74.7 M30.15,71.85 C31.25,71.85 32.1833333,72.2333333 32.95,73 C33.7166667,73.7666667 34.1,74.7 34.1,75.8 C34.1,76.9 33.7166667,77.8333333 32.95,78.6 C32.1833333,79.3666667 31.25,79.75 30.15,79.75 C29.05,79.75 28.1166667,79.3666667 27.35,78.6 C26.5833333,77.8333333 26.2,76.9 26.2,75.8 C26.2,74.7 26.5833333,73.7666667 27.35,73 C28.1166667,72.2333333 29.05,71.85 30.15,71.85" id="Shape" fill-opacity="0.501960784" fill="#A3C3EB"></path>
        </g>
    </g>
</svg>