<?xml version="1.0" encoding="UTF-8"?>
<svg width="69px" height="68px" viewBox="0 0 69 68" version="1.1" xmlns="http://www.w3.org/2000/svg" xmlns:xlink="http://www.w3.org/1999/xlink">
    <!-- Generator: Sketch 42 (36781) - http://www.bohemiancoding.com/sketch -->
    <title>yellow/duck</title>
    <desc>Created with Sketch.</desc>
    <defs></defs>
    <g id="Page-1" stroke="none" stroke-width="1" fill="none" fill-rule="evenodd">
        <g id="yellow/duck" fill-rule="nonzero">
            <path d="M42.45,45 C43.6833333,43.5666667 45.2,42.8666667 47,42.9 C48.8666667,42.8666667 50.3833333,43.5666667 51.55,45 C52.75,46.3333333 53.25,47.9 53.05,49.7 L51.7,68 L43.35,68 L41.15,49.7 C41.0166667,47.9 41.45,46.3333333 42.45,45 M13.05,45 C14.5833333,43.5666667 16.3,42.8666667 18.2,42.9 C19.9666667,42.8666667 21.2833333,43.5666667 22.15,45 C22.8166667,46.3333333 22.8333333,47.9 22.2,49.7 L15.15,68 L6.8,68 L10.3,49.7 C10.6,47.9 11.5166667,46.3333333 13.05,45" id="Shape" fill="#FFCC00"></path>
            <path d="M10.6,46.55 L15.2,29.45 C16.7333333,23.7166667 20.0666667,19.35 25.2,16.35 C30.3666667,13.3833333 35.8166667,12.6666667 41.55,14.2 C47.2833333,15.7333333 51.6166667,19.0833333 54.55,24.25 C57.55,29.3833333 58.2833333,34.8166667 56.75,40.55 L52.15,57.65 C51.2166667,61.1833333 48.3833333,63.65 43.65,65.05 C38.95,66.3833333 33.7333333,66.2833333 28,64.75 C22.2666667,63.2166667 17.7,60.6833333 14.3,57.15 C10.9,53.6166667 9.66666667,50.0833333 10.6,46.55" id="Shape" fill="#FFCC00"></path>
            <path d="M14.5,44.45 C10.0333333,43.1166667 7.15,45.1 5.85,50.4 C5.68333333,51.0666667 5.3,51.5833333 4.7,51.95 L2.8,52.2 C2.13333333,52.0333333 1.61666667,51.6666667 1.25,51.1 C0.916666667,50.5 0.816666667,49.8666667 0.95,49.2 C2.91666667,41.1 8.13333333,36.5666667 16.6,35.6 L16.9,35.55 L14.5,44.45 M51.95,53.85 L54.35,44.95 L54.65,45.1 C61.45,50.1666667 63.6666667,56.7 61.3,64.7 C61.1,65.3666667 60.7166667,65.8666667 60.15,66.2 L58.25,66.4 C57.5833333,66.2333333 57.0833333,65.85 56.75,65.25 C56.45,64.6166667 56.3833333,63.9666667 56.55,63.3 C58.05,58.0666667 56.5166667,54.9166667 51.95,53.85" id="Shape" fill="#FFCC00"></path>
            <path d="M25.55,38.25 L35.3,39.85 L35.2,40.25 C35,41.5833333 34.3166667,42.6333333 33.15,43.4 C32.05,44.2333333 30.8333333,44.5333333 29.5,44.3 C28.1333333,44.0666667 27.0333333,43.3666667 26.2,42.2 C25.4666667,41.1666667 25.2,39.9833333 25.4,38.65 L25.55,38.25 M42.85,41.55 L43,41.15 L52.75,42.8 L52.65,43.2 C52.45,44.5333333 51.7666667,45.5666667 50.6,46.3 C49.5,47.1333333 48.2833333,47.4333333 46.95,47.2 C45.5833333,47 44.4833333,46.3166667 43.65,45.15 C42.9166667,44.0833333 42.65,42.8833333 42.85,41.55" id="Shape" fill="#AD8A00"></path>
            <path d="M39.75,50.4 C40.0833333,51 40.1666667,51.6333333 40,52.3 C39.8,53 39.4,53.5 38.8,53.8 C38.2333333,54.1666667 37.6166667,54.2666667 36.95,54.1 C36.25,53.9 35.7166667,53.5 35.35,52.9 C35.0166667,52.3333333 34.95,51.7 35.15,51 C35.3166667,50.3333333 35.7,49.8333333 36.3,49.5 L38.2,49.25 C38.8666667,49.4166667 39.3833333,49.8 39.75,50.4" id="Shape" fill="#AD8A00"></path>
            <path d="M13.35,10.45 C19.6833333,4.08333333 27.35,0.9 36.35,0.9 C45.35,0.9 53.05,4.08333333 59.45,10.45 C65.7833333,16.7833333 68.95,24.45 68.95,33.45 C68.95,42.4833333 65.7833333,50.1833333 59.45,56.55 C53.05,62.8833333 45.35,66.05 36.35,66.05 C27.35,66.05 19.6833333,62.8833333 13.35,56.55 C6.95,50.1833333 3.75,42.4833333 3.75,33.45 C3.75,24.45 6.95,16.7833333 13.35,10.45 M16.9,53 C22.2666667,58.3666667 28.75,61.05 36.35,61.05 C43.95,61.05 50.4666667,58.3666667 55.9,53 C61.2666667,47.6 63.95,41.0833333 63.95,33.45 C63.95,25.85 61.2666667,19.3666667 55.9,14 C50.4666667,8.6 43.95,5.9 36.35,5.9 C28.75,5.9 22.2666667,8.6 16.9,14 C11.4666667,19.3666667 8.75,25.85 8.75,33.45 C8.75,41.0833333 11.4666667,47.6 16.9,53" id="Shape" fill="#FFFFFF"></path>
            <path d="M16.9,53 C11.4666667,47.6 8.75,41.0833333 8.75,33.45 C8.75,25.85 11.4666667,19.3666667 16.9,14 C22.2666667,8.6 28.75,5.9 36.35,5.9 C43.95,5.9 50.4666667,8.6 55.9,14 C61.2666667,19.3666667 63.95,25.85 63.95,33.45 C63.95,41.0833333 61.2666667,47.6 55.9,53 C50.4666667,58.3666667 43.95,61.05 36.35,61.05 C28.75,61.05 22.2666667,58.3666667 16.9,53 M41.15,16.45 C39.2833333,18.2833333 38.35,20.5 38.35,23.1 C38.35,25.7 39.2833333,27.9166667 41.15,29.75 C42.9833333,31.5833333 45.2,32.5 47.8,32.5 C50.4,32.5 52.6166667,31.5833333 54.45,29.75 C56.2833333,27.9166667 57.2,25.7 57.2,23.1 C57.2,20.5 56.2833333,18.2833333 54.45,16.45 C52.6166667,14.5833333 50.4,13.65 47.8,13.65 C45.2,13.65 42.9833333,14.5833333 41.15,16.45" id="Shape" fill-opacity="0.2" fill="#FFFFFF"></path>
            <path d="M41.15,16.45 C42.9833333,14.5833333 45.2,13.65 47.8,13.65 C50.4,13.65 52.6166667,14.5833333 54.45,16.45 C56.2833333,18.2833333 57.2,20.5 57.2,23.1 C57.2,25.7 56.2833333,27.9166667 54.45,29.75 C52.6166667,31.5833333 50.4,32.5 47.8,32.5 C45.2,32.5 42.9833333,31.5833333 41.15,29.75 C39.2833333,27.9166667 38.35,25.7 38.35,23.1 C38.35,20.5 39.2833333,18.2833333 41.15,16.45" id="Shape" fill-opacity="0.301960784" fill="#FFFFFF"></path>
        </g>
    </g>
</svg>